<svg width="40" height="36" viewBox="0 0 40 36" fill="none" xmlns="http://www.w3.org/2000/svg">
<path d="M23.3591 4C23.9204 4 24.4558 4.23582 24.8346 4.64989L26.7107 6.70022C27.4684 7.52836 28.5393 8 29.6618 8H35C35.5523 8 36 8.44772 36 9V31C36 31.5523 35.5523 32 35 32H5C4.44772 32 4 31.5523 4 31V9C4 8.44772 4.44772 8 5 8H10.3382C11.4607 8 12.5316 7.52836 13.2893 6.70022L15.1654 4.64989C15.5442 4.23582 16.0796 4 16.6409 4H23.3591ZM26.5946 0.649888C26.2158 0.235821 25.6804 0 25.1191 0H14.8809C14.3196 0 13.7842 0.235821 13.4054 0.649888L11.5293 2.70022C10.7716 3.52836 9.70072 4 8.57823 4H4C1.8 4 0 5.8 0 8V32C0 34.2 1.8 36 4 36H36C38.2 36 40 34.2 40 32V8C40 5.8 38.2 4 36 4H31.4218C30.2993 4 29.2284 3.52836 28.4707 2.70022L26.5946 0.649888ZM20 14C23.3 14 26 16.7 26 20C26 23.3 23.3 26 20 26C16.7 26 14 23.3 14 20C14 16.7 16.7 14 20 14ZM20 10C14.48 10 10 14.48 10 20C10 25.52 14.48 30 20 30C25.52 30 30 25.52 30 20C30 14.48 25.52 10 20 10Z" fill="#52545D"/>
</svg>
