<svg width="11" height="11" viewBox="0 0 11 11" fill="none" xmlns="http://www.w3.org/2000/svg">
<path d="M0 5.5C0 4.49883 0.26791 3.55781 0.73627 2.73066L3.0959 6.83848C3.56641 7.68066 4.4666 8.25 5.5 8.25C5.80723 8.25 6.08223 8.20059 6.37656 8.1082L4.7373 10.9484C2.06035 10.5768 0 8.27793 0 5.5ZM7.84395 6.90938C8.1082 6.49688 8.25 5.99629 8.25 5.5C8.25 4.6793 7.88906 3.94238 7.31973 3.4375H10.6004C10.8582 4.07344 11 4.77168 11 5.5C11 8.53789 8.53789 10.9807 5.5 11L7.84395 6.90938ZM10.2652 2.75H5.5C4.14863 2.75 3.05723 3.69746 2.80371 4.95645L1.16424 2.11557C2.16992 0.827793 3.73828 0 5.5 0C7.53672 0 9.31348 1.10602 10.2652 2.75ZM3.60938 5.5C3.60938 4.45586 4.45586 3.60938 5.5 3.60938C6.54414 3.60938 7.39062 4.45586 7.39062 5.5C7.39062 6.54414 6.54414 7.39062 5.5 7.39062C4.45586 7.39062 3.60938 6.54414 3.60938 5.5Z" fill="#246CF9"/>
<path d="M8.25 5.5C8.25 5.99629 8.1082 6.49688 7.84395 6.90938L5.5 11C8.53789 10.9807 11 8.53789 11 5.5C11 4.77168 10.8582 4.07344 10.6004 3.4375H7.31973C7.88906 3.94238 8.25 4.6793 8.25 5.5Z" fill="#FFD964"/>
<path d="M0 5.4998C0 4.49863 0.26791 3.55762 0.73627 2.73047L3.0959 6.83828C3.56641 7.68047 4.4666 8.2498 5.5 8.2498C5.80723 8.2498 6.08223 8.20039 6.37656 8.10801L4.7373 10.9482C2.06035 10.5766 0 8.27773 0 5.4998Z" fill="#219653"/>
<path d="M10.2651 2.75H5.49982C4.14846 2.75 3.05705 3.69746 2.80354 4.95645L1.16406 2.11557C2.16975 0.827793 3.73811 0 5.49982 0C7.53654 0 9.3133 1.10602 10.2651 2.75Z" fill="#EB5757"/>
</svg>
