<svg width="22" height="22" viewBox="0 0 22 22" fill="none" xmlns="http://www.w3.org/2000/svg">
<path fill-rule="evenodd" clip-rule="evenodd" d="M4.48097 11.4736C2.55383 13.4007 2.52812 16.5013 4.42576 18.399C6.3234 20.2966 9.42401 20.2709 11.3512 18.3438L19.8067 9.88821C20.2231 9.47181 20.8926 9.46619 21.302 9.87565C21.7115 10.2851 21.7059 10.9546 21.2895 11.371L12.8339 19.8265C10.073 22.5875 5.63343 22.6224 2.91786 19.9069C0.202294 17.1913 0.237269 12.7517 2.9982 9.99081L11.1483 1.84071C13.2699 -0.280934 16.6813 -0.307634 18.7678 1.77886C20.8543 3.86535 20.8276 7.27671 18.7059 9.39836L10.8374 17.2669C9.37282 18.7315 7.01823 18.7497 5.57829 17.3097C4.13834 15.8698 4.15653 13.5152 5.62114 12.0506L12.7304 4.94133C13.1468 4.52494 13.8163 4.51931 14.2257 4.92877C14.6352 5.33823 14.6296 6.00771 14.2132 6.42411L7.10392 13.5334C6.4731 14.1642 6.46417 15.1798 7.08618 15.8018C7.7082 16.4239 8.72384 16.4149 9.35466 15.7841L17.2232 7.91559C18.511 6.62773 18.5285 4.55532 17.2599 3.28676C15.9913 2.01819 13.9189 2.03563 12.6311 3.32349L4.48097 11.4736Z" fill="#246CF9"/>
</svg>
