<svg width="10" height="12" viewBox="0 0 10 12" fill="none" xmlns="http://www.w3.org/2000/svg">
<path d="M5.27917 0.0683425C5.19167 0.0235664 5.09792 0 5 0C4.90208 0 4.80833 0.0235664 4.72083 0.0683425L0.797925 1.9513C0.339592 2.17046 -0.00207385 2.68185 9.47601e-06 3.29929C0.0104261 5.63708 0.860425 9.91438 4.45 11.8586C4.79792 12.0471 5.20208 12.0471 5.55 11.8586C9.13958 9.91438 9.98957 5.63708 9.99999 3.29929C10.0021 2.68185 9.66041 2.17046 9.20208 1.9513L5.27917 0.0683425ZM2.66667 5.21524C2.66667 4.4187 3.2375 3.77062 3.94375 3.77062C4.28125 3.77062 4.60625 3.9238 4.84583 4.19246L5 4.36685L5.15417 4.19246C5.39375 3.92145 5.71875 3.77062 6.05625 3.77062C6.76041 3.77062 7.33333 4.41634 7.33333 5.21524C7.33333 5.59701 7.19791 5.96465 6.96041 6.23566L5.2375 8.1846C5.10833 8.33071 4.89583 8.33071 4.76667 8.1846L3.04375 6.23566C2.80417 5.96465 2.67084 5.59701 2.67084 5.21524H2.66667Z" fill="#757B8C"/>
</svg>
