<svg width="84" height="56" viewBox="0 0 84 56" fill="none" xmlns="http://www.w3.org/2000/svg">
<path opacity="0.4" d="M67.725 21.14C66.5493 15.182 63.3416 9.81701 58.6497 5.96136C53.9578 2.10572 48.0729 -0.00137285 42 6.71078e-07C31.885 6.71078e-07 23.1 5.74 18.725 14.14C13.5808 14.6959 8.82352 17.1332 5.36721 20.9836C1.9109 24.834 -0.000600956 29.8259 1.41725e-07 35C1.41725e-07 46.585 9.415 56 21 56H66.5C76.16 56 84 48.16 84 38.5C84 29.26 76.825 21.77 67.725 21.14Z" fill="#4F4F4F"/>
<path d="M50 31.5C49.4477 31.5 49 31.9477 49 32.5V44.5C49 45.0523 48.5523 45.5 48 45.5H36C35.4477 45.5 35 45.0523 35 44.5V32.5C35 31.9477 34.5523 31.5 34 31.5H26.9142C26.0233 31.5 25.5771 30.4229 26.2071 29.7929L41.2929 14.7071C41.6834 14.3166 42.3166 14.3166 42.7071 14.7071L57.7929 29.7929C58.4229 30.4229 57.9767 31.5 57.0858 31.5H50Z" fill="#246CF9"/>
</svg>
