<svg width="11" height="11" viewBox="0 0 11 11" fill="none" xmlns="http://www.w3.org/2000/svg">
<path d="M11 1.71875C11 2.10547 10.6928 2.46211 10.175 2.75C9.5498 3.0959 8.61738 3.34082 7.54746 3.41387C7.46797 3.3752 7.38848 3.33867 7.30469 3.30645C6.4582 2.95195 5.33242 2.75 4.125 2.75C3.94668 2.75 3.77266 2.7543 3.59863 2.76289L3.575 2.75C3.05723 2.46211 2.75 2.10547 2.75 1.71875C2.75 0.769141 4.59766 0 6.875 0C9.15234 0 11 0.769141 11 1.71875ZM3.45254 3.46113C3.67168 3.44609 3.89727 3.4375 4.125 3.4375C5.46133 3.4375 6.64727 3.70176 7.40137 4.11211C7.93418 4.40215 8.25 4.76309 8.25 5.15625C8.25 5.24219 8.23496 5.32598 8.20488 5.40762C8.10605 5.69121 7.83965 5.95117 7.45293 6.17031C7.45078 6.17246 7.44648 6.17246 7.44434 6.17461C7.43789 6.17891 7.43145 6.18105 7.425 6.18535C6.67305 6.60215 5.47422 6.87285 4.125 6.87285C2.84453 6.87285 1.69941 6.63008 0.941016 6.24766C0.900195 6.22832 0.861523 6.20684 0.822852 6.18535C0.307227 5.89961 0 5.54297 0 5.15625C0 4.40859 1.14727 3.77051 2.75 3.53633C2.97559 3.5041 3.20977 3.47832 3.45254 3.46113ZM8.9375 5.15625C8.9375 4.68574 8.70977 4.29902 8.41973 4.00898C9.02773 3.91445 9.58418 3.76406 10.0568 3.56855C10.407 3.42246 10.7336 3.24199 11 3.0207V3.78125C11 4.1959 10.6455 4.57832 10.059 4.8748C9.74531 5.03379 9.36289 5.16914 8.9332 5.27227C8.93535 5.23359 8.9375 5.19707 8.9375 5.1584V5.15625ZM8.25 7.21875C8.25 7.60547 7.94277 7.96211 7.425 8.25C7.38633 8.27148 7.34766 8.29082 7.30684 8.3123C6.55059 8.69473 5.40547 8.9375 4.125 8.9375C2.77578 8.9375 1.57695 8.6668 0.825 8.25C0.307227 7.96211 0 7.60547 0 7.21875V6.4582C0.268555 6.67949 0.592969 6.85996 0.943164 7.00605C1.7918 7.36055 2.91758 7.5625 4.125 7.5625C5.33242 7.5625 6.4582 7.36055 7.30684 7.00605C7.47441 6.9373 7.63555 6.85781 7.78809 6.77188C7.91914 6.69883 8.0416 6.61719 8.15762 6.53125C8.18984 6.50762 8.21992 6.48184 8.25 6.4582V6.53125V6.65371V7.21875ZM8.9375 7.21875V6.53125V5.9748C9.3457 5.88457 9.72168 5.7707 10.0568 5.63105C10.407 5.48496 10.7336 5.30449 11 5.0832V5.84375C11 6.06934 10.8926 6.29492 10.6799 6.50762C10.3297 6.85781 9.71309 7.1457 8.9332 7.33262C8.93535 7.29609 8.9375 7.25742 8.9375 7.21875ZM4.125 9.625C5.33242 9.625 6.4582 9.42305 7.30684 9.06855C7.65703 8.92246 7.98359 8.74199 8.25 8.5207V9.28125C8.25 10.2309 6.40234 11 4.125 11C1.84766 11 0 10.2309 0 9.28125V8.5207C0.268555 8.74199 0.592969 8.92246 0.943164 9.06855C1.7918 9.42305 2.91758 9.625 4.125 9.625Z" fill="#FFD964"/>
</svg>
