<svg width="20" height="17" viewBox="0 0 20 17" fill="none" xmlns="http://www.w3.org/2000/svg">
<path fill-rule="evenodd" clip-rule="evenodd" d="M19.2501 8.5C19.2501 13.1944 15.3595 17 10.5602 17C9.11218 17 7.74692 16.6536 6.54626 16.0409C6.37667 15.9543 6.18789 15.9103 5.99786 15.9222L1.34076 16.2118C0.913481 16.2384 0.652578 15.7507 0.911815 15.41L2.58758 13.2077C2.83173 12.8868 2.85418 12.453 2.68062 12.0891C2.16064 10.9987 1.87024 9.78253 1.87024 8.5C1.87024 3.80558 5.76085 0 10.5602 0C15.3595 0 19.2501 3.80558 19.2501 8.5ZM7.0538 9.76233C7.60608 9.76233 8.0538 9.31461 8.0538 8.76233C8.0538 8.21004 7.60608 7.76233 7.0538 7.76233C6.50151 7.76233 6.0538 8.21004 6.0538 8.76233C6.0538 9.31461 6.50151 9.76233 7.0538 9.76233ZM11.4757 8.76233C11.4757 9.31461 11.028 9.76233 10.4757 9.76233C9.92338 9.76233 9.47567 9.31461 9.47567 8.76233C9.47567 8.21004 9.92338 7.76233 10.4757 7.76233C11.028 7.76233 11.4757 8.21004 11.4757 8.76233ZM13.8975 9.76233C14.4498 9.76233 14.8975 9.31461 14.8975 8.76233C14.8975 8.21004 14.4498 7.76233 13.8975 7.76233C13.3453 7.76233 12.8975 8.21004 12.8975 8.76233C12.8975 9.31461 13.3453 9.76233 13.8975 9.76233Z" fill="white" fill-opacity="0.1"/>
</svg>
