<svg width="20" height="22" viewBox="0 0 20 22" fill="none" xmlns="http://www.w3.org/2000/svg">
<path d="M14.6667 22H1.33333C0.577778 22 0 21.415 0 20.65V5.35C0 4.585 0.577778 4 1.33333 4H14.6667C15.4222 4 16 4.585 16 5.35V20.65C16 21.37 15.3778 22 14.6667 22ZM1.77778 20.2H14.2222V5.8H1.77778V20.2Z" fill="#246CF9"/>
<path d="M18.4545 18.6522C17.9284 18.6522 17.498 18.2217 17.498 17.6957V1.91304H3.6284C3.10231 1.91304 2.67188 1.48261 2.67188 0.956522C2.67188 0.430435 3.10231 0 3.6284 0H17.7849C18.5501 0 19.411 0.573913 19.411 1.43478V17.6957C19.411 18.2217 18.9806 18.6522 18.4545 18.6522Z" fill="#246CF9"/>
</svg>
