<svg width="24" height="24" viewBox="0 0 24 24" fill="none" xmlns="http://www.w3.org/2000/svg">
<path opacity="0.4" d="M16.0755 1.91699H19.4615C20.8637 1.91699 22 3.01528 22 4.37069V7.64352C22 8.99893 20.8637 10.0972 19.4615 10.0972H16.0755C14.6732 10.0972 13.537 8.99893 13.537 7.64352V4.37069C13.537 3.01528 14.6732 1.91699 16.0755 1.91699Z" fill="#246CF9"/>
<path fill-rule="evenodd" clip-rule="evenodd" d="M4.53852 1.91699H7.92449C9.32676 1.91699 10.463 3.01528 10.463 4.37069V7.64352C10.463 8.99893 9.32676 10.0972 7.92449 10.0972H4.53852C3.13626 10.0972 2 8.99893 2 7.64352V4.37069C2 3.01528 3.13626 1.91699 4.53852 1.91699ZM4.53852 12.9066H7.92449C9.32676 12.9066 10.463 14.0049 10.463 15.3603V18.6331C10.463 19.9876 9.32676 21.0868 7.92449 21.0868H4.53852C3.13626 21.0868 2 19.9876 2 18.6331V15.3603C2 14.0049 3.13626 12.9066 4.53852 12.9066ZM19.4615 12.9066H16.0755C14.6732 12.9066 13.537 14.0049 13.537 15.3603V18.6331C13.537 19.9876 14.6732 21.0868 16.0755 21.0868H19.4615C20.8637 21.0868 22 19.9876 22 18.6331V15.3603C22 14.0049 20.8637 12.9066 19.4615 12.9066Z" fill="#246CF9"/>
</svg>
