<svg width="12" height="13" viewBox="0 0 12 13" fill="none" xmlns="http://www.w3.org/2000/svg">
<path d="M3.43281 0.449414C3.56992 0.172656 3.85176 0 4.15898 0H7.21602C7.52324 0 7.80508 0.172656 7.94219 0.449414L8.125 0.8125H10.5625C11.0119 0.8125 11.375 1.17559 11.375 1.625C11.375 2.07441 11.0119 2.4375 10.5625 2.4375H0.8125C0.363086 2.4375 0 2.07441 0 1.625C0 1.17559 0.363086 0.8125 0.8125 0.8125H3.25L3.43281 0.449414ZM0.8125 3.25H10.5625V11.375C10.5625 12.2713 9.83379 13 8.9375 13H2.4375C1.54121 13 0.8125 12.2713 0.8125 11.375V3.25ZM3.25 4.875C3.02656 4.875 2.84375 5.05781 2.84375 5.28125V10.9688C2.84375 11.1922 3.02656 11.375 3.25 11.375C3.47344 11.375 3.65625 11.1922 3.65625 10.9688V5.28125C3.65625 5.05781 3.47344 4.875 3.25 4.875ZM5.6875 4.875C5.46406 4.875 5.28125 5.05781 5.28125 5.28125V10.9688C5.28125 11.1922 5.46406 11.375 5.6875 11.375C5.91094 11.375 6.09375 11.1922 6.09375 10.9688V5.28125C6.09375 5.05781 5.91094 4.875 5.6875 4.875ZM8.125 4.875C7.90156 4.875 7.71875 5.05781 7.71875 5.28125V10.9688C7.71875 11.1922 7.90156 11.375 8.125 11.375C8.34844 11.375 8.53125 11.1922 8.53125 10.9688V5.28125C8.53125 5.05781 8.34844 4.875 8.125 4.875Z" fill="#EB5757"/>
</svg>
