<svg width="18" height="13" viewBox="0 0 18 13" fill="none" xmlns="http://www.w3.org/2000/svg">
<path d="M15.2612 1.09794C15.2562 1.08875 15.2479 1.08155 15.2378 1.07763C14.0708 0.570064 12.8392 0.208132 11.5739 0.000887765C11.5624 -0.001138 11.5506 0.00032341 11.54 0.00506416C11.5294 0.00980492 11.5207 0.0175836 11.5151 0.0272941C11.3474 0.315816 11.1951 0.612176 11.059 0.915243C9.69507 0.718989 8.30774 0.718989 6.94386 0.915243C6.80677 0.611407 6.65209 0.314973 6.48054 0.0272941C6.47466 0.0177947 6.46589 0.0101951 6.45538 0.00548514C6.44488 0.000775178 6.43312 -0.000826856 6.42164 0.000887765C5.15624 0.207697 3.9246 0.569656 2.75771 1.07766C2.74772 1.08167 2.73929 1.08852 2.73359 1.09727C0.400038 4.40062 -0.239209 7.62274 0.0743838 10.805C0.075266 10.8128 0.0777938 10.8203 0.0818169 10.8272C0.08584 10.834 0.0912762 10.84 0.0978022 10.8449C1.45661 11.7986 2.97645 12.5265 4.59246 12.9977C4.60384 13.0009 4.61599 13.0008 4.62728 12.9973C4.63858 12.9938 4.64846 12.9871 4.65561 12.9781C5.0027 12.5304 5.31024 12.0564 5.57512 11.5608C5.57876 11.554 5.58084 11.5465 5.58121 11.5389C5.58159 11.5313 5.58027 11.5237 5.57732 11.5166C5.57437 11.5095 5.56987 11.5031 5.56412 11.4977C5.55836 11.4924 5.55148 11.4883 5.54392 11.4857C5.05895 11.3098 4.58944 11.0977 4.1398 10.8515C4.13163 10.847 4.12477 10.8406 4.11982 10.8329C4.11488 10.8253 4.112 10.8166 4.11144 10.8076C4.11088 10.7986 4.11265 10.7897 4.11661 10.7815C4.12057 10.7734 4.12659 10.7663 4.13413 10.7608C4.22848 10.6938 4.32289 10.6241 4.41298 10.5537C4.42098 10.5475 4.43067 10.5435 4.44095 10.5422C4.45122 10.5408 4.46168 10.5423 4.47114 10.5463C7.41694 11.8207 10.6062 11.8207 13.5171 10.5463C13.5266 10.542 13.5372 10.5404 13.5476 10.5416C13.558 10.5428 13.5679 10.5468 13.576 10.5531C13.6661 10.6235 13.7605 10.6938 13.8555 10.7608C13.8631 10.7662 13.8692 10.7733 13.8732 10.7814C13.8772 10.7895 13.8791 10.7985 13.8786 10.8074C13.8781 10.8164 13.8753 10.8251 13.8704 10.8328C13.8655 10.8405 13.8587 10.8469 13.8506 10.8515C13.402 11.0998 12.932 11.3117 12.4458 11.485C12.4382 11.4877 12.4314 11.4919 12.4257 11.4973C12.4199 11.5027 12.4155 11.5092 12.4126 11.5164C12.4097 11.5235 12.4084 11.5312 12.4089 11.5388C12.4093 11.5465 12.4115 11.554 12.4152 11.5608C12.6845 12.0536 12.9916 12.527 13.334 12.9773C13.3409 12.9865 13.3508 12.9934 13.3621 12.9971C13.3734 13.0007 13.3857 13.0009 13.3971 12.9976C15.016 12.528 16.5385 11.8 17.899 10.8449C17.9057 10.8403 17.9112 10.8344 17.9152 10.8276C17.9193 10.8209 17.9217 10.8134 17.9225 10.8056C18.2979 7.12665 17.2939 3.93093 15.2612 1.09794ZM6.01505 8.86732C5.12815 8.86732 4.39737 8.09582 4.39737 7.14833C4.39737 6.20083 5.11397 5.42927 6.01505 5.42927C6.92316 5.42927 7.64687 6.20753 7.6327 7.14827C7.6327 8.09582 6.91606 8.86732 6.01505 8.86732ZM11.9961 8.86732C11.1092 8.86732 10.3784 8.09582 10.3784 7.14833C10.3784 6.20083 11.095 5.42927 11.9961 5.42927C12.9043 5.42927 13.6279 6.20753 13.6138 7.14827C13.6138 8.09582 12.9043 8.86732 11.9961 8.86732Z" fill="#5300DA"/>
</svg>
