<svg width="11" height="10" viewBox="0 0 11 10" fill="none" xmlns="http://www.w3.org/2000/svg">
<path d="M2.75 5.4994V0.687543C2.75 0.307914 2.44213 0.0193789 2.0625 0.0193789H0.6875C0.307871 0.0193789 0 0.32725 0 0.687543V5.48071C0 5.86034 0.307871 6.14887 0.6875 6.14887H2.0625C2.44277 6.1869 2.75 5.87967 2.75 5.4994ZM10.3447 4.23397C10.3712 4.12457 10.385 4.01225 10.385 3.89795C10.385 3.41026 10.1392 2.97133 9.75595 2.7103C9.76501 2.64552 9.76971 2.57976 9.76971 2.51432C9.76971 2.03479 9.53209 1.59908 9.15032 1.33633C9.09794 0.590605 8.4742 0 7.71516 0H6.58659C5.81444 0 5.04938 0.25502 4.4317 0.717793L3.64375 1.30844C3.50872 1.40963 3.43759 1.56303 3.43759 1.71944C3.43759 1.99358 3.65866 2.23592 3.95386 2.23592C4.06156 2.23592 4.1702 2.2023 4.2628 2.13256L5.05042 1.54153C5.49042 1.21196 6.03612 1.02998 6.58655 1.02998H7.71513C7.93964 1.02998 8.12268 1.21254 8.12268 1.43711C8.12268 1.51231 8.09884 1.54324 8.09884 1.64027C8.09884 2.2197 8.73843 2.02505 8.73843 2.51339C8.73843 2.71221 8.6011 2.74886 8.6011 2.99142C8.6011 3.29156 8.8342 3.463 9.02176 3.49824C9.21411 3.53414 9.3537 3.70193 9.3537 3.89699C9.3537 4.17714 9.10899 4.18423 9.10899 4.5181C9.10899 4.78751 9.31743 5.01396 9.58938 5.03244C9.80117 5.02889 9.96875 5.2244 9.96875 5.41561C9.96875 5.63969 9.78579 5.82231 9.56119 5.82231H6.6043C6.33703 5.82231 6.08867 6.03758 6.08867 6.3186C6.08867 6.40535 6.11059 6.49215 6.15454 6.57039C6.53984 7.29764 6.70312 7.98729 6.70312 8.14627C6.70312 8.31909 6.57456 8.59293 6.22918 8.59293C5.95998 8.59293 5.9226 8.57347 5.69336 7.98987C5.16162 6.63829 4.36691 5.84358 3.95355 5.84358C3.65707 5.84358 3.4375 6.08571 3.4375 6.35899C3.4375 6.51026 3.50374 6.6602 3.6312 6.76204C5.11543 7.94862 4.5418 9.6244 6.22832 9.6244C7.17148 9.6244 7.73438 8.87245 7.73438 8.14627C7.73438 7.87342 7.61991 7.38981 7.41576 6.8716H9.56119C10.3361 6.87225 11 6.22772 11 5.41561C11 4.93651 10.74 4.48963 10.3447 4.23397Z" fill="#EB5757"/>
</svg>
