<svg width="12" height="12" viewBox="0 0 12 12" fill="none" xmlns="http://www.w3.org/2000/svg">
<path d="M6 12C9.31371 12 12 9.31371 12 6C12 2.68629 9.31371 0 6 0C2.68629 0 0 2.68629 0 6C0 9.31371 2.68629 12 6 12Z" fill="#219653"/>
<path fill-rule="evenodd" clip-rule="evenodd" d="M8.4375 7.18275C8.4375 8.1465 7.65525 8.78625 6.50025 8.88263V9.75H5.709V8.874C4.92776 8.78591 4.18548 8.48583 3.5625 8.00625L4.1445 7.209C4.66313 7.61213 5.154 7.875 5.74538 7.96275V6.24525C4.4175 5.91225 3.79912 5.43037 3.79912 4.44037C3.79912 3.49425 4.572 2.84588 5.709 2.75813V2.25H6.50025V2.77575C7.11867 2.84444 7.70827 3.07408 8.21025 3.44175L7.70062 4.26525C7.3005 3.97612 6.89137 3.792 6.46387 3.70462V5.36925C7.8465 5.70225 8.4375 6.23662 8.4375 7.18275ZM5.745 5.18512V3.64313C5.17237 3.687 4.87238 3.99375 4.87238 4.37925C4.87238 4.74675 5.04488 4.98375 5.74538 5.1855L5.745 5.18512ZM7.36425 7.24387C7.36425 6.85012 7.173 6.6135 6.46387 6.41175V7.998C7.03687 7.95375 7.36425 7.66463 7.36425 7.24425V7.24387Z" fill="white"/>
</svg>
