<svg width="11" height="11" viewBox="0 0 11 11" fill="none" xmlns="http://www.w3.org/2000/svg">
<path d="M5.5 1.375C6.63867 1.375 7.5625 2.29883 7.5625 3.4375C7.5625 4.57617 6.63867 5.5 5.5 5.5C4.36133 5.5 3.4375 6.42383 3.4375 7.5625C3.4375 8.70117 4.36133 9.625 5.5 9.625C3.22266 9.625 1.375 7.77734 1.375 5.5C1.375 3.22266 3.22266 1.375 5.5 1.375ZM5.5 11C8.53789 11 11 8.53789 11 5.5C11 2.46211 8.53789 0 5.5 0C2.46211 0 0 2.46211 0 5.5C0 8.53789 2.46211 11 5.5 11ZM6.1875 3.4375C6.1875 3.05723 5.88027 2.75 5.5 2.75C5.11973 2.75 4.8125 3.05723 4.8125 3.4375C4.8125 3.81777 5.11973 4.125 5.5 4.125C5.88027 4.125 6.1875 3.81777 6.1875 3.4375ZM6.1875 7.5625C6.1875 7.94277 5.88027 8.25 5.5 8.25C5.11973 8.25 4.8125 7.94277 4.8125 7.5625C4.8125 7.18223 5.11973 6.875 5.5 6.875C5.88027 6.875 6.1875 7.18223 6.1875 7.5625Z" fill="#757B8C"/>
</svg>
