<svg width="7" height="15" viewBox="0 0 7 15" fill="none" xmlns="http://www.w3.org/2000/svg">
<path d="M7 9.55422C7 9.64199 6.97627 9.7285 6.93001 9.80498L3.88647 14.78C3.80248 14.9166 3.65703 15 3.50002 15C3.343 15 3.19755 14.9166 3.11356 14.78L0.07002 9.80498C-0.0182251 9.66017 -0.0237024 9.47712 0.0572397 9.32729C0.137573 9.17684 0.290328 9.08406 0.456473 9.08406H6.54356C6.7097 9.08406 6.86246 9.17684 6.94279 9.32729C6.98113 9.39813 7 9.47649 7 9.55422Z" fill="#757B8C"/>
<path d="M7 5.44578C7 5.35801 6.97627 5.2715 6.93001 5.19502L3.88647 0.220038C3.80248 0.0833767 3.65703 0 3.50002 0C3.343 0 3.19755 0.0833767 3.11356 0.220038L0.07002 5.19502C-0.0182251 5.33983 -0.0237024 5.52288 0.0572397 5.67271C0.137573 5.82316 0.290328 5.91594 0.456473 5.91594H6.54356C6.7097 5.91594 6.86246 5.82316 6.94279 5.67271C6.98113 5.60187 7 5.52351 7 5.44578Z" fill="#757B8C"/>
</svg>
