<svg width="22" height="22" viewBox="0 0 22 22" fill="none" xmlns="http://www.w3.org/2000/svg">
<path d="M15.6014 0.806479L13.5195 2.88827L19.1115 8.47985L21.1935 6.39806C22.2688 5.32276 22.2688 3.58076 21.1935 2.50546L19.4986 0.806479C18.4233 -0.268826 16.6811 -0.268826 15.6057 0.806479H15.6014ZM12.5473 3.86034L2.52041 13.8908C2.07305 14.3381 1.74613 14.893 1.56547 15.4994L0.0427174 20.6738C-0.0648214 21.0394 0.0341143 21.4308 0.300811 21.6975C0.567507 21.9642 0.958948 22.0631 1.32028 21.9599L6.49505 20.4372C7.10157 20.2566 7.65647 19.9297 8.10383 19.4824L18.1394 9.45193L12.5473 3.86034Z" fill="#246CF9"/>
</svg>
