<svg width="20" height="17" viewBox="0 0 20 17" fill="none" xmlns="http://www.w3.org/2000/svg">
<path d="M2 16.037C1.45 16.037 0.979333 15.8413 0.588 15.45C0.196 15.058 0 14.587 0 14.037V2.03699C0 1.48699 0.196 1.01632 0.588 0.624987C0.979333 0.232987 1.45 0.0369873 2 0.0369873H18C18.55 0.0369873 19.021 0.232987 19.413 0.624987C19.8043 1.01632 20 1.48699 20 2.03699V14.037C20 14.587 19.8043 15.058 19.413 15.45C19.021 15.8413 18.55 16.037 18 16.037H2ZM2 4.03699L9.47 8.70574C9.79427 8.90841 10.2057 8.90841 10.53 8.70574L18 4.03699V2.03699L10.53 6.70574C10.2057 6.90841 9.79427 6.90841 9.47 6.70574L2 2.03699V4.03699Z" fill="#757B8C"/>
</svg>
