<svg width="11" height="11" viewBox="0 0 11 11" fill="none" xmlns="http://www.w3.org/2000/svg">
<path d="M4.76236 7.26264C4.52497 7.50095 4.52535 7.88646 4.76319 8.12431C5.00137 8.36248 5.38752 8.36248 5.62569 8.12431L8.25 5.5L5.62569 2.87569C5.38752 2.63752 5.00137 2.63752 4.76319 2.87569C4.52535 3.11354 4.52497 3.49905 4.76236 3.73736L5.90944 4.88889H0.611111C0.273604 4.88889 0 5.16249 0 5.5C0 5.83751 0.273604 6.11111 0.611111 6.11111H5.90944L4.76236 7.26264ZM9.77778 0H1.22222C0.898069 0 0.587192 0.128769 0.357981 0.357981C0.128769 0.587192 0 0.898069 0 1.22222V3.05556C0 3.39306 0.273604 3.66667 0.611111 3.66667C0.948618 3.66667 1.22222 3.39306 1.22222 3.05556V1.22222H9.77778V9.77778H1.22222V7.94444C1.22222 7.60694 0.948618 7.33333 0.611111 7.33333C0.273604 7.33333 0 7.60694 0 7.94444V9.77778C0 10.1019 0.128769 10.4128 0.357981 10.642C0.587192 10.8712 0.898069 11 1.22222 11H9.77778C10.45 11 11 10.45 11 9.77778V1.22222C11 0.55 10.45 0 9.77778 0Z" fill="#EB5757"/>
</svg>
