<svg width="15" height="13" viewBox="0 0 15 13" fill="none" xmlns="http://www.w3.org/2000/svg">
<path fill-rule="evenodd" clip-rule="evenodd" d="M1.97356 2.16667C1.97356 0.97005 2.89796 0 4.03826 0C5.17857 0 6.10297 0.97005 6.10297 2.16667C6.10297 3.36328 5.17857 4.33333 4.03826 4.33333C2.89796 4.33333 1.97356 3.36328 1.97356 2.16667ZM4.03826 0.962963C3.40476 0.962963 2.89121 1.50188 2.89121 2.16667C2.89121 2.83145 3.40476 3.37037 4.03826 3.37037C4.67177 3.37037 5.18532 2.83145 5.18532 2.16667C5.18532 1.50188 4.67177 0.962963 4.03826 0.962963ZM8.39709 6.5C8.39709 5.30338 9.32149 4.33333 10.4618 4.33333C11.6021 4.33333 12.5265 5.30338 12.5265 6.5C12.5265 7.69662 11.6021 8.66667 10.4618 8.66667C9.32149 8.66667 8.39709 7.69662 8.39709 6.5ZM10.4618 5.2963C9.82829 5.2963 9.31473 5.83521 9.31473 6.5C9.31473 7.16479 9.82829 7.7037 10.4618 7.7037C11.0953 7.7037 11.6089 7.16479 11.6089 6.5C11.6089 5.83521 11.0953 5.2963 10.4618 5.2963ZM6.79121 9.62963C6.1577 9.62963 5.64415 10.1685 5.64415 10.8333C5.64415 11.4981 6.1577 12.037 6.79121 12.037C7.42471 12.037 7.93826 11.4981 7.93826 10.8333C7.93826 10.1685 7.42471 9.62963 6.79121 9.62963ZM4.7265 10.8333C4.7265 9.63672 5.6509 8.66667 6.79121 8.66667C7.93151 8.66667 8.85591 9.63672 8.85591 10.8333C8.85591 12.03 7.93151 13 6.79121 13C5.6509 13 4.7265 12.03 4.7265 10.8333Z" fill="white"/>
<path d="M14.1324 10.8333C14.1324 10.5674 13.927 10.3519 13.6736 10.3519H7.84282C7.90421 10.4993 7.93826 10.6621 7.93826 10.8333C7.93826 11.0045 7.90421 11.1674 7.84282 11.3148H13.6736C13.927 11.3148 14.1324 11.0992 14.1324 10.8333Z" fill="white"/>
<path d="M0.367676 10.8333C0.367676 10.5674 0.573098 10.3519 0.826499 10.3519H5.73959C5.6782 10.4993 5.64415 10.6621 5.64415 10.8333C5.64415 11.0045 5.6782 11.1674 5.73959 11.3148H0.826499C0.573098 11.3148 0.367676 11.0992 0.367676 10.8333Z" fill="white"/>
<path d="M0.826499 6.98148C0.573098 6.98148 0.367676 6.76592 0.367676 6.5C0.367676 6.23409 0.573098 6.01852 0.826499 6.01852H9.41018C9.34879 6.16596 9.31473 6.32881 9.31473 6.5C9.31473 6.67119 9.34879 6.83404 9.41018 6.98148H0.826499Z" fill="white"/>
<path d="M0.367676 2.16667C0.367676 1.90075 0.573098 1.68519 0.826499 1.68519H2.98665C2.92526 1.83263 2.89121 1.99547 2.89121 2.16667C2.89121 2.33786 2.92526 2.5007 2.98665 2.64815H0.826499C0.573098 2.64815 0.367676 2.43258 0.367676 2.16667Z" fill="white"/>
<path d="M14.1324 6.5C14.1324 6.23409 13.927 6.01852 13.6736 6.01852H11.5134C11.5748 6.16596 11.6089 6.32881 11.6089 6.5C11.6089 6.67119 11.5748 6.83404 11.5134 6.98148H13.6736C13.927 6.98148 14.1324 6.76592 14.1324 6.5Z" fill="white"/>
<path d="M14.1324 2.16667C14.1324 2.43258 13.927 2.64815 13.6736 2.64815H5.08988C5.15127 2.5007 5.18532 2.33786 5.18532 2.16667C5.18532 1.99547 5.15127 1.83263 5.08988 1.68519H13.6736C13.927 1.68519 14.1324 1.90075 14.1324 2.16667Z" fill="white"/>
</svg>
