<svg width="12" height="13" viewBox="0 0 12 13" fill="none" xmlns="http://www.w3.org/2000/svg">
<path fill-rule="evenodd" clip-rule="evenodd" d="M3.9558 13C3.11462 13 2.42638 12.3118 2.42638 11.4706L1.66168 3.05882H10.8382L10.0734 11.4706C10.0734 12.3118 9.38521 13 8.54403 13H3.9558ZM10.8382 0.764706C11.2605 0.764706 11.6029 1.10708 11.6029 1.52941C11.6029 1.95175 11.2605 2.29412 10.8382 2.29412H1.66168C1.23934 2.29412 0.896973 1.95175 0.896973 1.52941C0.896973 1.10708 1.23934 0.764706 1.66168 0.764706H3.30722C3.47768 0.764706 3.64116 0.69699 3.7617 0.576454L4.18521 0.152941C4.28313 0.0550146 4.41595 0 4.55444 0H7.94539C8.08388 0 8.21669 0.0550145 8.31462 0.152941L8.73813 0.576454C8.85867 0.69699 9.02215 0.764706 9.19261 0.764706H10.8382ZM4.45397 6.07614C4.43104 5.80095 4.18936 5.59645 3.91417 5.61939C3.63899 5.64232 3.43449 5.88399 3.45742 6.15918L3.83978 10.7474C3.86271 11.0226 4.10438 11.2271 4.37957 11.2042C4.65476 11.1812 4.85925 10.9396 4.83632 10.6644L4.45397 6.07614ZM9.0422 6.15918C9.06514 5.88399 8.86064 5.64232 8.58545 5.61939C8.31027 5.59645 8.06859 5.80095 8.04566 6.07614L7.66331 10.6644C7.64037 10.9396 7.84487 11.1812 8.12006 11.2042C8.39524 11.2271 8.63692 11.0226 8.65985 10.7474L9.0422 6.15918ZM6.74981 6.11766C6.74981 5.84152 6.52596 5.61766 6.24981 5.61766C5.97367 5.61766 5.74981 5.84152 5.74981 6.11766V10.7059C5.74981 10.982 5.97367 11.2059 6.24981 11.2059C6.52596 11.2059 6.74981 10.982 6.74981 10.7059V6.11766Z" fill="#EB5757"/>
</svg>
