<svg width="17" height="18" viewBox="0 0 17 18" fill="none" xmlns="http://www.w3.org/2000/svg">
<path d="M14.1231 2.8125C13.9848 2.8125 13.8493 2.82397 13.717 2.84608C13.3852 1.84377 12.4512 1.11955 11.3538 1.11955C11.1303 1.11955 10.9135 1.14963 10.7072 1.20593C10.2669 0.482695 9.48115 0 8.58462 0C7.68808 0 6.89885 0.484805 6.45923 1.21078C6.255 1.15488 6.04039 1.125 5.81885 1.125C4.44462 1.125 3.32342 2.26055 3.32342 3.65625V7.93125C3.14204 7.89609 2.9565 7.875 2.76958 7.875C2.76949 7.875 2.76967 7.875 2.76958 7.875C1.26104 7.875 0 9.1125 0 10.691C0 11.4043 0.261623 12.0804 0.742846 12.6053L3.55535 15.6723C4.91192 17.1527 6.83308 18 8.82346 18H9.96854C13.635 18 16.6154 14.973 16.6154 11.25V5.34375C16.6154 3.94805 15.4973 2.8125 14.1231 2.8125ZM14.9538 11.25C14.9538 14.0418 12.718 16.3125 10.0004 16.3125H8.82346C7.28619 16.3125 5.81781 15.6635 4.77 14.5209L2.00908 11.5105C1.79439 11.2764 1.68348 10.9691 1.68348 10.6984C1.68348 9.91934 2.32491 9.59449 2.76868 9.59449C3.06498 9.59449 3.3606 9.71459 3.57937 9.95238L4.50429 10.961C4.56231 10.9934 4.635 11.018 4.70423 11.018C4.84636 11.018 4.98337 10.9065 4.98337 10.7362V3.65625C4.98337 3.19043 5.35548 2.8125 5.78298 2.8125C6.24164 2.8125 6.5826 3.19043 6.5826 3.65625V9C6.64615 9.30937 6.89538 9.5625 7.2 9.5625C7.50462 9.5625 7.72269 9.31068 7.72269 9.03164L7.75385 2.53125C7.75385 2.06543 8.12596 1.6875 8.55346 1.6875C9.01212 1.6875 9.35308 2.06543 9.35308 2.53125V9C9.41539 9.30937 9.66462 9.5625 9.96923 9.5625C10.2738 9.5625 10.5227 9.31064 10.5227 9.03164L10.523 3.68086C10.523 3.21504 10.8951 2.83711 11.3226 2.83711C11.7813 2.83711 12.1222 3.21504 12.1222 3.68086V9.03164C12.1846 9.30937 12.4338 9.5625 12.7385 9.5625C13.0431 9.5625 13.2612 9.31068 13.2612 9.03164V5.34375C13.2612 4.87793 13.6333 4.5 14.0608 4.5C14.5194 4.5 14.8604 4.87793 14.8604 5.34375V11.25H14.9538Z" fill="#EB5757"/>
</svg>
