<svg width="12" height="13" viewBox="0 0 12 13" fill="none" xmlns="http://www.w3.org/2000/svg">
<path d="M6.92774 3.31674H7.54636C7.71037 3.31695 7.86759 3.3841 7.98356 3.50345C8.09953 3.62279 8.16477 3.7846 8.16498 3.95338V4.59002C8.16498 4.75887 8.23016 4.9208 8.34617 5.04019C8.46219 5.15959 8.61954 5.22666 8.7836 5.22666C8.94767 5.22666 9.10502 5.15959 9.22104 5.04019C9.33705 4.9208 9.40223 4.75887 9.40223 4.59002V3.95338C9.40169 3.447 9.20599 2.96153 8.85806 2.60347C8.51014 2.24541 8.0384 2.04401 7.54636 2.04345H6.92774C6.76367 2.04345 6.60633 2.11053 6.49031 2.22992C6.3743 2.34931 6.30912 2.51125 6.30912 2.68009C6.30912 2.84894 6.3743 3.01087 6.49031 3.13027C6.60633 3.24966 6.76367 3.31674 6.92774 3.31674ZM4.45326 9.04651H3.83464C3.67064 9.04629 3.51341 8.97915 3.39744 8.8598C3.28147 8.74045 3.21623 8.57865 3.21602 8.40987V7.77323C3.21602 7.60438 3.15084 7.44245 3.03483 7.32305C2.91881 7.20366 2.76147 7.13659 2.5974 7.13659C2.43333 7.13659 2.27598 7.20366 2.15997 7.32305C2.04395 7.44245 1.97878 7.60438 1.97878 7.77323V8.40987C1.97931 8.91624 2.17501 9.40172 2.52294 9.75978C2.87086 10.1178 3.3426 10.3192 3.83464 10.3198H4.45326C4.61733 10.3198 4.77468 10.2527 4.89069 10.1333C5.0067 10.0139 5.07188 9.852 5.07188 9.68315C5.07188 9.5143 5.0067 9.35237 4.89069 9.23298C4.77468 9.11358 4.61733 9.04651 4.45326 9.04651ZM11.2581 8.40987C11.4222 8.40987 11.5795 8.34279 11.6955 8.2234C11.8115 8.10401 11.8767 7.94208 11.8767 7.77323C11.8767 7.60438 11.8115 7.44245 11.6955 7.32305C11.5795 7.20366 11.4222 7.13659 11.2581 7.13659H9.40223V6.81826C9.40223 6.64942 9.33705 6.48748 9.22104 6.36809C9.10502 6.2487 8.94767 6.18162 8.7836 6.18162C8.61954 6.18162 8.46219 6.2487 8.34617 6.36809C8.23016 6.48748 8.16498 6.64942 8.16498 6.81826V7.13659H6.30912C6.14505 7.13659 5.9877 7.20366 5.87169 7.32305C5.75568 7.44245 5.6905 7.60438 5.6905 7.77323C5.6905 7.94208 5.75568 8.10401 5.87169 8.2234C5.9877 8.34279 6.14505 8.40987 6.30912 8.40987H9.51622C9.37627 8.99498 9.11793 9.54311 8.75808 10.0185C8.61083 9.82201 8.4806 9.61266 8.36888 9.39281C8.33183 9.31843 8.2809 9.25229 8.21902 9.19817C8.15713 9.14404 8.08549 9.10299 8.00819 9.07736C7.93089 9.05172 7.84944 9.04201 7.76849 9.04877C7.68754 9.05553 7.60867 9.07864 7.5364 9.11677C7.46413 9.1549 7.39986 9.2073 7.34726 9.27099C7.29467 9.33468 7.25478 9.4084 7.22987 9.48796C7.17957 9.64863 7.19335 9.82328 7.26817 9.97349C7.43477 10.3048 7.63356 10.618 7.86149 10.9081C7.41266 11.2435 6.90229 11.4815 6.36136 11.6077C6.20135 11.644 6.06188 11.7442 5.97355 11.8862C5.88522 12.0283 5.85525 12.2006 5.89021 12.3653C5.92517 12.5301 6.02221 12.6738 6.16003 12.765C6.29785 12.8562 6.4652 12.8874 6.62536 12.8518C7.40154 12.6751 8.12962 12.3224 8.75651 11.8194C9.38867 12.3227 10.1216 12.6752 10.9022 12.8515C10.9816 12.8695 11.0636 12.8712 11.1436 12.8566C11.2236 12.842 11.3 12.8113 11.3684 12.7663C11.4369 12.7213 11.4961 12.6629 11.5426 12.5943C11.5891 12.5258 11.6221 12.4485 11.6396 12.3668C11.6571 12.2852 11.6588 12.2008 11.6446 12.1185C11.6304 12.0362 11.6005 11.9575 11.5568 11.8871C11.5131 11.8166 11.4563 11.7557 11.3897 11.7078C11.3231 11.6599 11.248 11.626 11.1687 11.608C10.6241 11.4834 10.1095 11.2474 9.65545 10.914C10.2275 10.1894 10.613 9.3282 10.7766 8.40987H11.2581ZM3.85305 6.0178C3.89327 6.18117 3.99479 6.32146 4.13535 6.40793C4.27591 6.4944 4.44405 6.52 4.60291 6.4791C4.76178 6.43821 4.89841 6.33416 4.98286 6.18977C5.06731 6.04538 5.09269 5.87242 5.05344 5.7088L3.96632 1.23335C3.88996 0.919196 3.71376 0.640319 3.46572 0.441043C3.21769 0.241768 2.91205 0.133529 2.59738 0.133529C2.28271 0.133529 1.97707 0.241768 1.72903 0.441043C1.481 0.640319 1.3048 0.919196 1.22844 1.23335L0.141324 5.7088C0.102071 5.87242 0.127451 6.04538 0.211902 6.18977C0.296352 6.33416 0.432983 6.43821 0.591849 6.4791C0.750714 6.52 0.918854 6.4944 1.05942 6.40793C1.19998 6.32146 1.30149 6.18117 1.34171 6.0178L1.68852 4.59002H3.50624L3.85305 6.0178ZM1.99783 3.31674L2.42883 1.54235C2.44178 1.50712 2.46484 1.47679 2.49495 1.45538C2.52505 1.43397 2.56078 1.4225 2.59738 1.4225C2.63397 1.4225 2.6697 1.43397 2.69981 1.45538C2.72992 1.47679 2.75298 1.50712 2.76593 1.54235L3.19693 3.31674H1.99783Z" fill="#757B8C"/>
<path fill-rule="evenodd" clip-rule="evenodd" d="M9.40223 3.95338V4.59002C9.40223 4.75887 9.33705 4.9208 9.22104 5.04019C9.10502 5.15959 8.94767 5.22666 8.7836 5.22666C8.61954 5.22666 8.46219 5.15959 8.34617 5.04019C8.23016 4.9208 8.16498 4.75887 8.16498 4.59002V3.95338C8.16477 3.7846 8.09953 3.62279 7.98356 3.50345C7.86759 3.3841 7.71037 3.31695 7.54636 3.31674H6.92774C6.76367 3.31674 6.60633 3.24966 6.49031 3.13027C6.3743 3.01087 6.30912 2.84894 6.30912 2.68009C6.30912 2.51125 6.3743 2.34931 6.49031 2.22992C6.60633 2.11053 6.76367 2.04345 6.92774 2.04345H7.54636C8.0384 2.04401 8.51014 2.24541 8.85806 2.60347C9.20599 2.96153 9.40169 3.447 9.40223 3.95338ZM8.0417 3.95359V4.59005C8.0417 4.7966 8.12149 4.99321 8.26127 5.13706C8.40083 5.28069 8.58883 5.36025 8.78361 5.36025C8.97839 5.36025 9.16639 5.28069 9.30595 5.13706C9.44573 4.99321 9.52552 4.7966 9.52552 4.59005V3.95341C9.52494 3.40939 9.31464 2.88915 8.94298 2.50667C8.57154 2.1244 8.06921 1.91051 7.5465 1.90992H6.92775C6.73296 1.90992 6.54497 1.98949 6.4054 2.13312C6.26562 2.27697 6.18584 2.47358 6.18584 2.68013C6.18584 2.88667 6.26562 3.08328 6.4054 3.22713C6.54497 3.37076 6.73296 3.45033 6.92775 3.45033H7.54622C7.67956 3.45051 7.80619 3.50516 7.89865 3.60031C7.9909 3.69524 8.04154 3.82245 8.0417 3.95359ZM1.97878 8.40987V7.77323C1.97878 7.60438 2.04395 7.44245 2.15997 7.32305C2.27598 7.20366 2.43333 7.13659 2.5974 7.13659C2.76147 7.13659 2.91881 7.20366 3.03483 7.32305C3.15084 7.44245 3.21602 7.60438 3.21602 7.77323V8.40987C3.21623 8.57865 3.28147 8.74045 3.39744 8.8598C3.51341 8.97915 3.67064 9.04629 3.83464 9.04651H4.45326C4.61733 9.04651 4.77468 9.11358 4.89069 9.23298C5.0067 9.35237 5.07188 9.5143 5.07188 9.68315C5.07188 9.852 5.0067 10.0139 4.89069 10.1333C4.77468 10.2527 4.61733 10.3198 4.45326 10.3198H3.83464C3.3426 10.3192 2.87086 10.1178 2.52294 9.75978C2.17501 9.40172 1.97931 8.91624 1.97878 8.40987ZM3.8348 8.91298C3.83485 8.91298 3.83474 8.91298 3.8348 8.91298C3.70151 8.91276 3.57478 8.85811 3.48236 8.763C3.39012 8.66807 3.33948 8.54087 3.33931 8.40972V7.77326C3.33931 7.56671 3.25952 7.3701 3.11975 7.22625C2.98018 7.08262 2.79218 7.00306 2.5974 7.00306C2.40262 7.00306 2.21462 7.08262 2.07506 7.22625C1.93528 7.3701 1.85549 7.56671 1.85549 7.77326L1.85549 8.4099C1.85607 8.95392 2.06638 9.47416 2.43803 9.85665C2.80947 10.2389 3.3118 10.4528 3.83452 10.4534H4.45326C4.64805 10.4534 4.83604 10.3738 4.97561 10.2302C5.11539 10.0863 5.19517 9.88973 5.19517 9.68318C5.19517 9.47664 5.11539 9.28003 4.97561 9.13618C4.83604 8.99255 4.64805 8.91298 4.45326 8.91298L3.8348 8.91298ZM7.26817 9.97349C7.19335 9.82328 7.17957 9.64863 7.22987 9.48796C7.25478 9.4084 7.29467 9.33468 7.34726 9.27099C7.39986 9.2073 7.46413 9.1549 7.5364 9.11677C7.60867 9.07864 7.68754 9.05553 7.76849 9.04877C7.84944 9.04201 7.93089 9.05172 8.00819 9.07736C8.08549 9.10299 8.15713 9.14404 8.21902 9.19817C8.2809 9.25229 8.33183 9.31843 8.36888 9.39281C8.46043 9.57297 8.56442 9.74611 8.68001 9.91084C8.70547 9.94713 8.73149 9.98299 8.75808 10.0185C8.78483 9.98311 8.81103 9.9474 8.83666 9.91127C9.12934 9.49859 9.34792 9.03535 9.48205 8.54346C9.49413 8.49917 9.50552 8.45461 9.51622 8.40987H6.30912C6.14505 8.40987 5.9877 8.34279 5.87169 8.2234C5.75568 8.10401 5.6905 7.94208 5.6905 7.77323C5.6905 7.60438 5.75568 7.44245 5.87169 7.32305C5.9877 7.20366 6.14505 7.13659 6.30912 7.13659H8.16498V6.81826C8.16498 6.64942 8.23016 6.48748 8.34617 6.36809C8.46219 6.2487 8.61954 6.18162 8.7836 6.18162C8.94767 6.18162 9.10502 6.2487 9.22104 6.36809C9.33705 6.48748 9.40223 6.64942 9.40223 6.81826V7.13659H11.2581C11.4222 7.13659 11.5795 7.20366 11.6955 7.32305C11.8115 7.44245 11.8767 7.60438 11.8767 7.77323C11.8767 7.94208 11.8115 8.10401 11.6955 8.2234C11.5795 8.34279 11.4222 8.40987 11.2581 8.40987H10.7766C10.6207 9.28504 10.2632 10.1083 9.73486 10.811C9.70881 10.8457 9.68233 10.88 9.65545 10.914C9.68973 10.9392 9.72438 10.9639 9.75934 10.9879C10.1874 11.2825 10.6653 11.4929 11.1687 11.608C11.248 11.626 11.3231 11.6599 11.3897 11.7078C11.4563 11.7557 11.5131 11.8166 11.5568 11.8871C11.6005 11.9575 11.6304 12.0362 11.6446 12.1185C11.6588 12.2008 11.6571 12.2852 11.6396 12.3668C11.6221 12.4485 11.5891 12.5258 11.5426 12.5943C11.4961 12.6629 11.4369 12.7213 11.3684 12.7663C11.3 12.8113 11.2236 12.842 11.1436 12.8566C11.0636 12.8712 10.9816 12.8695 10.9022 12.8515C10.1216 12.6752 9.38867 12.3227 8.75651 11.8194C8.12962 12.3224 7.40154 12.6751 6.62536 12.8518C6.4652 12.8874 6.29785 12.8562 6.16003 12.765C6.02221 12.6738 5.92517 12.5301 5.89021 12.3653C5.85525 12.2006 5.88522 12.0283 5.97355 11.8862C6.06188 11.7442 6.20135 11.644 6.36136 11.6077C6.86125 11.4911 7.33503 11.279 7.75827 10.9828C7.79302 10.9584 7.82743 10.9335 7.86149 10.9081C7.83472 10.874 7.80835 10.8397 7.78239 10.8049C7.58731 10.5442 7.41521 10.2659 7.26817 9.97349ZM7.67918 10.8791C7.48248 10.615 7.30869 10.3333 7.15991 10.0374C7.06893 9.85476 7.05174 9.64115 7.11312 9.44509C7.14346 9.3482 7.19191 9.25883 7.25538 9.18197C7.31884 9.10512 7.39606 9.04228 7.48243 8.99672C7.56878 8.95116 7.66276 8.92368 7.75901 8.91564C7.85527 8.9076 7.95217 8.91913 8.04428 8.94968C8.13639 8.98022 8.22212 9.02925 8.29647 9.09428C8.37067 9.15918 8.43215 9.2388 8.47709 9.32885C8.56047 9.49287 8.65452 9.65091 8.75859 9.80188C9.02485 9.41982 9.22588 8.99425 9.35331 8.54346H6.30913C6.11434 8.54346 5.92635 8.4639 5.78678 8.32027C5.647 8.17642 5.56722 7.97981 5.56722 7.77326C5.56722 7.56671 5.647 7.3701 5.78678 7.22625C5.92635 7.08262 6.11434 7.00306 6.30913 7.00306H8.0417V6.8183C8.0417 6.61175 8.12149 6.41514 8.26127 6.27129C8.40083 6.12766 8.58883 6.04809 8.78361 6.04809C8.97839 6.04809 9.16639 6.12766 9.30595 6.27129C9.44573 6.41514 9.52552 6.61175 9.52552 6.8183V7.00306H11.2581C11.4529 7.00306 11.6409 7.08262 11.7804 7.22625C11.9202 7.3701 12 7.56671 12 7.77326C12 7.97981 11.9202 8.17642 11.7804 8.32027C11.6409 8.4639 11.4529 8.54346 11.2581 8.54346H10.8773C10.7089 9.39571 10.3534 10.1964 9.83874 10.8843C10.2508 11.1654 10.7102 11.3667 11.1941 11.4774C11.2885 11.4988 11.3781 11.5392 11.4579 11.5966C11.5377 11.6539 11.6062 11.7273 11.6591 11.8126C11.7121 11.8979 11.7484 11.9935 11.7658 12.094C11.7831 12.1944 11.781 12.2975 11.7597 12.3971C11.7383 12.4967 11.6982 12.5906 11.6419 12.6735C11.5857 12.7564 11.5144 12.8266 11.4324 12.8805C11.3504 12.9344 11.2592 12.971 11.1641 12.9883C11.069 13.0057 10.9715 13.0037 10.8771 12.9823M7.67918 10.8791C7.2718 11.1619 6.81632 11.3649 6.33571 11.4771C6.14564 11.5204 5.97818 11.6398 5.87131 11.8116C5.76419 11.9839 5.72734 12.194 5.77006 12.3953C5.81274 12.5964 5.93075 12.7698 6.09577 12.879C6.2606 12.9881 6.45984 13.025 6.65017 12.9826C7.41347 12.8089 8.13219 12.4684 8.75679 11.9844M3.73382 6.05182L3.41121 4.72361H1.78357L1.46095 6.05182C1.41187 6.25115 1.28845 6.42066 1.1203 6.52411C0.952321 6.62745 0.752207 6.65769 0.563352 6.60908C0.374414 6.56044 0.210082 6.43623 0.107763 6.26129C0.00527324 6.08605 -0.025943 5.8751 0.0220051 5.67524L1.10921 1.19939C1.19293 0.854957 1.38578 0.550567 1.6556 0.333796C1.92531 0.117108 2.25681 0 2.59738 0C2.93796 0 3.26946 0.117108 3.53917 0.333796C3.80898 0.550567 4.00183 0.854936 4.08555 1.19937L5.17267 5.67485C5.22062 5.87471 5.1895 6.08605 5.08701 6.26129C4.98469 6.43623 4.82036 6.56044 4.63142 6.60908C4.44257 6.65769 4.24245 6.62745 4.07447 6.52411C3.90632 6.42066 3.7829 6.25115 3.73382 6.05182ZM1.68852 4.59002H3.50624L3.85305 6.0178C3.89327 6.18117 3.99479 6.32146 4.13535 6.40793C4.27591 6.4944 4.44405 6.52 4.60291 6.4791C4.76178 6.43821 4.89841 6.33416 4.98286 6.18977C5.06731 6.04538 5.09269 5.87242 5.05344 5.7088L3.96632 1.23335C3.88996 0.919196 3.71376 0.640319 3.46572 0.441043C3.21769 0.241768 2.91205 0.133529 2.59738 0.133529C2.28271 0.133529 1.97707 0.241768 1.72903 0.441043C1.481 0.640319 1.3048 0.919196 1.22844 1.23335L0.141324 5.7088C0.102071 5.87242 0.127451 6.04538 0.211902 6.18977C0.296352 6.33416 0.432983 6.43821 0.591849 6.4791C0.750714 6.52 0.918854 6.4944 1.05942 6.40793C1.19998 6.32146 1.30149 6.18117 1.34171 6.0178L1.68852 4.59002ZM1.99783 3.31674H3.19693L2.76593 1.54235C2.75298 1.50712 2.72992 1.47679 2.69981 1.45538C2.6697 1.43397 2.63397 1.4225 2.59738 1.4225C2.56078 1.4225 2.52505 1.43397 2.49495 1.45538C2.46484 1.47679 2.44178 1.50712 2.42883 1.54235L1.99783 3.31674ZM2.15776 3.18321H3.03701L2.64924 1.58681C2.64563 1.57957 2.63999 1.57263 2.63217 1.56707C2.6225 1.56019 2.61035 1.5561 2.59738 1.5561C2.58441 1.5561 2.57227 1.56019 2.5626 1.56707C2.55478 1.57263 2.54913 1.57957 2.54553 1.58681L2.15776 3.18321Z" fill="#757B8C"/>
</svg>
