<svg width="10" height="10" viewBox="0 0 10 10" fill="none" xmlns="http://www.w3.org/2000/svg">
<path d="M1.875 3.55105H0.625C0.279883 3.55105 0 3.87093 0 4.24528V9.22541C0 9.61985 0.279883 9.91964 0.625 9.91964H1.875C2.22012 9.91964 2.5 9.59976 2.5 9.22541V4.26537C2.5 3.89035 2.2207 3.55105 1.875 3.55105ZM10 4.35243C10 3.52895 9.41309 2.85861 8.69199 2.85861H6.7416C6.92773 2.301 7.03125 1.81883 7.03125 1.53534C7.03125 0.780838 6.51953 0 5.66289 0C4.75254 0 4.50352 0.724139 4.30332 1.30586C3.68496 3.10282 3.125 2.78785 3.125 3.39234C3.125 3.67896 3.32734 3.92785 3.59414 3.92785C3.6968 3.92785 3.8002 3.88944 3.88652 3.81044C5.38574 2.44051 5.01875 1.07148 5.66289 1.07148C5.97695 1.07148 6.09375 1.35609 6.09375 1.53556C6.09375 1.70083 5.94543 2.41841 5.59473 3.13362C5.55477 3.21501 5.53484 3.30519 5.53484 3.39524C5.53484 3.70597 5.75809 3.91089 6.00359 3.91089H8.69109C8.89648 3.93053 9.0625 4.12027 9.0625 4.35243C9.0625 4.57139 8.91082 4.7549 8.71738 4.77008C8.47012 4.78926 8.28066 5.02455 8.28066 5.30448C8.28066 5.64981 8.50312 5.66052 8.50312 5.94982C8.50312 6.51614 7.81894 6.22528 7.81894 6.89071C7.81894 7.14117 7.94379 7.18157 7.94379 7.38738C7.94379 7.89321 7.36234 7.69454 7.36234 8.29457C7.36234 8.39535 7.38402 8.42763 7.38402 8.50565C7.38402 8.73892 7.2177 8.92866 7.01352 8.92866H5.98754C5.48715 8.92866 4.99105 8.73968 4.59105 8.39716L3.87504 7.78307C3.79076 7.71063 3.69203 7.67568 3.59418 7.67568C3.32367 7.67568 3.12484 7.92971 3.12484 8.21231C3.12484 8.37497 3.18953 8.5342 3.31227 8.63934L4.02848 9.25365C4.58984 9.73436 5.28516 10 5.98828 10H7.01426C7.7043 10 8.27129 9.38636 8.31894 8.61154C8.66602 8.33854 8.88203 7.88584 8.88203 7.38761C8.88203 7.31961 8.87776 7.25128 8.86952 7.18398C9.21796 6.91276 9.44139 6.45672 9.44139 5.95C9.44139 5.83144 9.42888 5.71472 9.40477 5.60087C9.76367 5.31452 10 4.87031 10 4.35243Z" fill="#03F438"/>
</svg>
