<svg width="20" height="24" viewBox="0 0 20 24" fill="none" xmlns="http://www.w3.org/2000/svg">
<path d="M6.42857 6.5625V8.75H13.5714V6.5625C13.5714 4.54818 11.9732 2.91667 10 2.91667C8.02679 2.91667 6.42857 4.54818 6.42857 6.5625ZM3.57143 8.75V6.5625C3.57143 2.93945 6.45089 0 10 0C13.5491 0 16.4286 2.93945 16.4286 6.5625V8.75H17.1429C18.7188 8.75 20 10.0579 20 11.6667V20.4167C20 22.0254 18.7188 23.3333 17.1429 23.3333H2.85714C1.28125 23.3333 0 22.0254 0 20.4167V11.6667C0 10.0579 1.28125 8.75 2.85714 8.75H3.57143Z" fill="#757B8C"/>
</svg>
