<svg width="31" height="34" viewBox="0 0 31 34" fill="none" xmlns="http://www.w3.org/2000/svg">
<path d="M7.70984 12.7537L0 8.4631L13.0862 0.641103C14.5204 -0.216168 16.3174 -0.213516 17.749 0.647986L28.8397 7.32204C30.1812 8.12927 31 9.57019 31 11.1235V23.2287C31 24.8112 30.1504 26.2747 28.7687 27.0721L17.8146 33.3939C16.4313 34.1922 14.7233 34.2026 13.3302 33.4211L0 25.9433V17.2032L15.4197 25.9433L23.1295 21.4938V12.7537L15.4197 8.4631L7.70984 12.7537Z" fill="white"/>
<path d="M7.71094 21.572V12.7537L15.4208 8.4631L23.1306 12.7537V21.4938L15.4208 25.9433L7.71094 21.572Z" fill="#5816BE"/>
<path d="M7.71094 12.7535L15.4208 17.203V25.9431L7.71094 21.5675V12.7535Z" fill="#360F80"/>
<path d="M15.4208 17.2032L23.1306 12.7537L15.4208 8.4631L7.71094 12.7537L15.4208 17.2032Z" fill="#7D1AFF"/>
</svg>
