<svg width="24" height="25" viewBox="0 0 24 25" fill="none" xmlns="http://www.w3.org/2000/svg">
<path fill-rule="evenodd" clip-rule="evenodd" d="M15.2428 5.57081C15.2428 7.79181 17.0459 9.59228 19.2702 9.59228C19.5151 9.59107 19.7594 9.56756 20 9.52203V17.4947C20 20.8489 18.0215 22.8333 14.6624 22.8333H7.34636C3.97851 22.8333 2 20.8489 2 17.4947V10.1893C2 6.8352 3.97851 4.83325 7.34636 4.83325H15.3131C15.2659 5.07626 15.2423 5.32327 15.2428 5.57081ZM13.15 15.7298L16.0078 12.042V12.0245C16.2525 11.6957 16.1901 11.2321 15.8671 10.9796C15.7108 10.8589 15.5122 10.8067 15.3167 10.8348C15.1211 10.863 14.9453 10.9691 14.8295 11.1289L12.4201 14.2284L9.6766 12.0684C9.51997 11.9463 9.32071 11.8925 9.12381 11.9189C8.92691 11.9453 8.74898 12.0499 8.63019 12.2089L5.67562 16.0196C5.57177 16.149 5.51586 16.3103 5.51734 16.4762C5.5002 16.8114 5.71187 17.1159 6.03238 17.2171C6.35288 17.3182 6.70138 17.1906 6.88031 16.9064L9.35125 13.7103L12.0948 15.8615C12.2508 15.9873 12.4514 16.0444 12.6504 16.0195C12.8494 15.9947 13.0297 15.8901 13.15 15.7298Z" fill="#757B8C"/>
<circle opacity="0.4" cx="19.5" cy="5.33325" r="2.5" fill="#757B8C"/>
</svg>
