<svg width="8" height="10" viewBox="0 0 8 10" fill="none" xmlns="http://www.w3.org/2000/svg">
<path d="M6.61153 4.745C6.61156 4.74999 6.61157 4.755 6.61157 4.76V5.74238C7.01304 6.04113 7.27273 6.51677 7.27273 7.0525C7.27273 7.95686 6.5327 8.69 5.61984 8.69H1.65289C0.740027 8.69 0 7.95686 0 7.0525C0 6.51677 0.259688 6.04113 0.661159 5.74238V4.76C0.661159 3.24309 1.81782 1.99382 3.30505 1.83057C3.28378 1.96715 3.27273 2.10724 3.27273 2.25C3.27273 2.33226 3.2764 2.41364 3.28358 2.49397C2.17301 2.66227 1.32231 3.61272 1.32231 4.76V6.06959L1.05823 6.2661C0.815859 6.44646 0.661159 6.73148 0.661159 7.0525C0.661159 7.59512 1.10517 8.035 1.65289 8.035H5.61984C6.16755 8.035 6.61157 7.59512 6.61157 7.0525C6.61157 6.73148 6.45687 6.44646 6.2145 6.2661L5.95041 6.06959V4.87152C6.18015 4.8594 6.40184 4.81586 6.61153 4.745Z" fill="white"/>
<path d="M4.6281 9.0175C4.6281 9.56012 4.18409 10 3.63636 10C3.08864 10 2.64463 9.56012 2.64463 9.0175H4.6281Z" fill="white"/>
<path d="M8 2.25C8 3.49264 7.02317 4.5 5.81818 4.5C4.6132 4.5 3.63636 3.49264 3.63636 2.25C3.63636 1.00736 4.6132 0 5.81818 0C7.02317 0 8 1.00736 8 2.25Z" fill="#FA2256"/>
</svg>
