<svg width="10" height="11" viewBox="0 0 10 11" fill="none" xmlns="http://www.w3.org/2000/svg">
<path d="M9.20693 6.50159C10.0087 5.11282 9.93807 3.5219 8.82189 2.46733L8.99949 2.15972C9.21627 1.78425 9.08817 1.30618 8.7127 1.0894C8.33724 0.872627 7.85916 1.00073 7.64239 1.37619L7.46479 1.6838C5.98889 1.24184 4.58292 1.97419 3.7785 3.36749L3.00028 4.71541C2.66242 5.30058 2.10595 5.72758 1.45327 5.90246L1.19331 5.97212C1.09869 5.99747 1.01802 6.05938 0.969036 6.14421C0.867041 6.32088 0.927569 6.54677 1.10423 6.64877L7.70239 10.4582C7.87905 10.5602 8.10494 10.4997 8.20694 10.323C8.25592 10.2382 8.26919 10.1374 8.24384 10.0427L8.17418 9.78278C7.9993 9.13011 8.09085 8.43469 8.4287 7.84951L9.20693 6.50159ZM3.61978 9.9106C3.68311 9.94716 3.74453 9.97659 3.81118 9.99697C4.14178 10.1034 4.49646 10.0428 4.77078 9.83927C4.87869 9.75682 4.96922 9.65226 5.04235 9.5256L3.23287 8.4809C2.9501 8.98111 3.11765 9.62069 3.61978 9.9106Z" fill="#757B8C"/>
</svg>
