<svg width="24" height="26" viewBox="0 0 24 26" fill="none" xmlns="http://www.w3.org/2000/svg">
<path opacity="0.4" fill-rule="evenodd" clip-rule="evenodd" d="M13.5249 9.04859V2.54082C13.5249 1.43625 12.6295 0.540817 11.5249 0.540817H7.24264C6.44699 0.540817 5.68393 0.856888 5.12132 1.4195L0.878679 5.66214C0.316071 6.22475 0 6.98781 0 7.78346V15.9981C0 17.1027 0.89543 17.9981 2 17.9981H8.35019C7.39002 17.0302 6.79688 15.6976 6.79688 14.2265C6.79688 11.2688 9.1946 8.87108 12.1523 8.87108C12.6268 8.87108 13.0868 8.93278 13.5249 9.04859ZM5.57256 2.34851L2.0876 5.85199L1.71952 6.22277C1.16226 6.78412 1.55986 7.73912 2.35083 7.73912H6.56989C7.0612 7.73912 7.45947 7.34083 7.45947 6.84952L7.45964 2.63046C7.45964 1.85034 6.52707 1.44804 5.95963 1.98336L5.57256 2.34851Z" fill="#757B8C"/>
<path fill-rule="evenodd" clip-rule="evenodd" d="M2.08711 5.85203L5.57208 2.34855L5.95914 1.9834C6.52659 1.44807 7.45916 1.85038 7.45916 2.6305L7.45898 6.84956C7.45898 7.34087 7.06071 7.73916 6.56941 7.73916H2.35035C1.55938 7.73916 1.16177 6.78416 1.71903 6.22281L2.08711 5.85203Z" fill="#757B8C"/>
<path d="M15.9464 10.4355C18.0396 12.5287 18.0396 15.9224 15.9464 18.0156C13.8532 20.1088 10.4594 20.1088 8.36624 18.0156C6.27304 15.9224 6.27304 12.5287 8.36624 10.4355C10.4594 8.34232 13.8532 8.34232 15.9464 10.4355ZM9.88226 16.4996C11.1382 17.7555 13.1744 17.7555 14.4303 16.4996C15.6863 15.2437 15.6863 13.2075 14.4303 11.9515C13.1744 10.6956 11.1382 10.6956 9.88226 11.9515C8.62635 13.2075 8.62635 15.2437 9.88226 16.4996Z" fill="#757B8C"/>
<path d="M15.1041 18.8579C14.639 18.3927 14.639 17.6386 15.1041 17.1734C15.5693 16.7083 16.3235 16.7083 16.7886 17.1734L19.3153 19.7001C19.7805 20.1653 19.7805 20.9194 19.3153 21.3846C18.8502 21.8497 18.096 21.8497 17.6308 21.3846L15.1041 18.8579Z" fill="#757B8C"/>
</svg>
