<svg width="9" height="13" viewBox="0 0 9 13" fill="none" xmlns="http://www.w3.org/2000/svg">
<path d="M7.3348 6.01719C8.00085 5.66311 8.41758 5.03952 8.32023 4.00065C8.18914 2.58092 7.01445 2.10485 5.53157 1.96928L5.53128 0H4.38233L4.38201 1.91749C4.07972 1.91749 3.77156 1.92369 3.46479 1.93011L3.46454 0.000261369L2.31663 0.000149361L2.31642 1.96894C2.06764 1.97424 1.82332 1.97928 1.58477 1.97928V1.97346L0 1.97279L0.000214515 3.25283C0.000214515 3.25283 0.84869 3.23618 0.834712 3.25234C1.29992 3.25268 1.45182 3.53459 1.4955 3.77792L1.49586 6.02134V9.17261C1.47538 9.32532 1.38918 9.56933 1.0639 9.56978C1.0787 9.58337 0 9.56963 0 9.56963L0.000214515 11.001H1.49515C1.7737 11.0013 2.0474 11.0059 2.31591 11.0081L2.31692 12.9997L3.46454 13L3.46422 11.0293C3.77996 11.036 4.08472 11.0389 4.38241 11.0385L4.38208 13H5.531L5.53164 11.0118C7.46289 10.896 8.81493 10.3883 8.98303 8.49569C9.11852 6.97194 8.43127 6.29178 7.3348 6.01719ZM3.49225 3.33923C4.14024 3.33923 6.17817 3.1239 6.17845 4.53646C6.17817 5.89069 4.14088 5.73249 3.49225 5.73249V3.33923ZM3.49175 9.57948L3.49225 6.94069C4.2708 6.94047 6.71273 6.70691 6.71305 8.25949C6.71337 9.7484 4.2708 9.57889 3.49175 9.57948Z" fill="#246CF9"/>
</svg>
