<svg width="15" height="13" viewBox="0 0 15 13" fill="none" xmlns="http://www.w3.org/2000/svg">
<path d="M7.51078 6.39545C8.12198 6.39545 8.39603 6.37916 8.44902 6.3752L8.44721 6.37476C10.3224 6.29199 11.721 5.96618 11.721 5.57697C11.721 5.18777 10.322 4.86197 8.44721 4.77876V6.05115C8.39464 6.05599 8.10256 6.08021 7.51915 6.08021C7.03303 6.08021 6.6813 6.05952 6.55847 6.05071V4.77788C4.67975 4.86153 3.27756 5.18689 3.27756 5.57697C3.27756 5.96706 4.67975 6.29286 6.55847 6.3752C6.67949 6.38092 7.02466 6.39545 7.51078 6.39545Z" fill="#757B8C"/>
<path fill-rule="evenodd" clip-rule="evenodd" d="M0.0112423 5.78743L2.74638 0.0638466C2.75536 0.0445684 2.76969 0.0282838 2.78773 0.0169545C2.80577 0.00563048 2.82674 -0.000259922 2.84806 8.80083e-06H12.1529C12.1741 -5.03182e-05 12.1949 0.0059852 12.2128 0.0173844C12.2306 0.0287783 12.2448 0.0450629 12.2537 0.0642873L14.9887 5.78787C14.9992 5.80916 15.0025 5.8332 14.9982 5.85649C14.996 5.86822 14.9919 5.87945 14.9862 5.88977C14.9806 5.89995 14.9735 5.90926 14.9649 5.91731L7.57802 12.9688C7.55705 12.9888 7.52908 13 7.49999 13C7.4709 13 7.44303 12.9888 7.42205 12.9688L0.0351515 5.91687C0.0178022 5.90066 0.00614977 5.87934 0.00183403 5.85605C-0.00248171 5.83277 0.000884568 5.80872 0.0112423 5.78743ZM8.44902 3.50812V4.64712C10.5712 4.74442 12.1661 5.16356 12.1661 5.66591C12.1661 6.16827 10.5699 6.58741 8.44859 6.68471V10.3359H6.55795V6.68603C4.43185 6.58829 2.83296 6.16915 2.83296 5.66635C2.83296 5.16356 4.43185 4.74398 6.55795 4.64668V3.50812H3.94219V1.77124H11.0652V3.50812H8.44902Z" fill="#757B8C"/>
</svg>
