<svg width="13" height="13" viewBox="0 0 13 13" fill="none" xmlns="http://www.w3.org/2000/svg">
<path d="M3.97516 5.46254L6.5 2.93795L9.02561 5.46355L10.4947 3.99471L6.5 0L2.50631 3.99344L3.97516 5.46229M0 6.5L1.4691 5.03064L2.93795 6.5L1.46885 7.96834L0 6.5ZM3.97516 7.53721L6.5 10.0615L9.02561 7.53594L10.4955 9.00402L6.5 13L2.50631 9.00605L2.50428 9.00377L3.97516 7.53695M10.0615 6.5L11.5304 5.03115L13 6.5L11.5312 7.96885L10.0615 6.5Z" fill="#757B8C"/>
<path d="M7.98941 6.5L6.5 5.0083L5.0083 6.49949L6.5 7.99094L7.99043 6.50051H7.98916" fill="#757B8C"/>
</svg>
