<svg width="18" height="19" viewBox="0 0 18 19" fill="none" xmlns="http://www.w3.org/2000/svg">
<path d="M0 2.80774C0 2.211 0.237053 1.63871 0.65901 1.21675C1.08097 0.794792 1.65326 0.557739 2.25 0.557739H13.5C14.2956 0.557739 15.0587 0.87381 15.6213 1.43642C16.1839 1.99903 16.5 2.76209 16.5 3.55774V3.95974C16.956 4.22304 17.3348 4.60174 17.5981 5.05778C17.8614 5.51383 18 6.03114 18 6.55774V15.5577C18 16.3534 17.6839 17.1164 17.1213 17.6791C16.5587 18.2417 15.7956 18.5577 15 18.5577H3.75C2.75544 18.5577 1.80161 18.1627 1.09835 17.4594C0.395088 16.7561 0 15.8023 0 14.8077V2.80774ZM1.5 2.80774C1.5 3.00665 1.57902 3.19742 1.71967 3.33807C1.86032 3.47872 2.05109 3.55774 2.25 3.55774H15C15 3.15991 14.842 2.77838 14.5607 2.49708C14.2794 2.21577 13.8978 2.05774 13.5 2.05774H2.25C2.05109 2.05774 1.86032 2.13676 1.71967 2.27741C1.57902 2.41806 1.5 2.60883 1.5 2.80774ZM12.75 9.55774C12.5511 9.55774 12.3603 9.63676 12.2197 9.77741C12.079 9.91806 12 10.1088 12 10.3077C12 10.5067 12.079 10.6974 12.2197 10.8381C12.3603 10.9787 12.5511 11.0577 12.75 11.0577H14.25C14.4489 11.0577 14.6397 10.9787 14.7803 10.8381C14.921 10.6974 15 10.5067 15 10.3077C15 10.1088 14.921 9.91806 14.7803 9.77741C14.6397 9.63676 14.4489 9.55774 14.25 9.55774H12.75Z" fill="#757B8C"/>
</svg>
