<svg width="12" height="12" viewBox="0 0 12 12" fill="none" xmlns="http://www.w3.org/2000/svg">
<path fill-rule="evenodd" clip-rule="evenodd" d="M6 12C9.31394 12 12 9.31371 12 6C12 2.68629 9.31394 0 6 0C2.68606 0 0 2.68629 0 6C0 9.31371 2.68606 12 6 12ZM8.21053 3.78947C8.21053 5.01031 7.2206 6 6 6C4.7794 6 3.78947 5.01031 3.78947 3.78947C3.78947 2.56863 4.7794 1.57895 6 1.57895C7.2206 1.57895 8.21053 2.56863 8.21053 3.78947ZM6 6.63158C4.13425 6.63158 2.52015 7.71022 1.74794 9.27792C2.72985 10.5495 4.26933 11.3684 6 11.3684C7.73067 11.3684 9.27015 10.5495 10.2521 9.27792C9.47985 7.71022 7.86575 6.63158 6 6.63158Z" fill="#757B8C"/>
</svg>
