<svg width="23" height="25" viewBox="0 0 23 25" fill="none" xmlns="http://www.w3.org/2000/svg">
<path fill-rule="evenodd" clip-rule="evenodd" d="M21.6713 14.0179C22.1042 14.2479 22.4383 14.6111 22.6733 14.9742C23.131 15.7247 23.0939 16.6447 22.6486 17.4558L21.7826 18.9084C21.3249 19.6832 20.4713 20.1674 19.5929 20.1674C19.1599 20.1674 18.6775 20.0463 18.2816 19.8042C17.9599 19.5984 17.5888 19.5258 17.1929 19.5258C15.9682 19.5258 14.9414 20.5305 14.9043 21.7289C14.9043 23.1211 13.7662 24.2105 12.3435 24.2105H10.661C9.22597 24.2105 8.08783 23.1211 8.08783 21.7289C8.06309 20.5305 7.03629 19.5258 5.81156 19.5258C5.40331 19.5258 5.03218 19.5984 4.7229 19.8042C4.32703 20.0463 3.83219 20.1674 3.41157 20.1674C2.52085 20.1674 1.66725 19.6832 1.20952 18.9084L0.355919 17.4558C-0.101811 16.6689 -0.126553 15.7247 0.331177 14.9742C0.529114 14.6111 0.900246 14.2479 1.32086 14.0179C1.66725 13.8484 1.88993 13.57 2.10024 13.2432C2.71879 12.2021 2.34766 10.8342 1.29612 10.2168C0.0713843 9.52684 -0.32449 7.98947 0.380661 6.79105L1.20952 5.36263C1.92704 4.16421 3.46106 3.74053 4.69816 4.44263C5.77444 5.02368 7.17237 4.63632 7.8033 3.60737C8.00124 3.26842 8.11258 2.90526 8.08783 2.5421C8.06309 2.07 8.19917 1.62211 8.43422 1.25895C8.89195 0.508421 9.72081 0.0242105 10.6239 0H12.3682C13.2837 0 14.1125 0.508421 14.5703 1.25895C14.7929 1.62211 14.9414 2.07 14.9043 2.5421C14.8795 2.90526 14.9909 3.26842 15.1888 3.60737C15.8197 4.63632 17.2177 5.02368 18.3063 4.44263C19.5311 3.74053 21.0774 4.16421 21.7826 5.36263L22.6115 6.79105C23.329 7.98947 22.9331 9.52684 21.696 10.2168C20.6445 10.8342 20.2733 12.2021 20.9043 13.2432C21.1022 13.57 21.3249 13.8484 21.6713 14.0179ZM8 12.1173C8 14.0179 9.57113 15.531 11.5134 15.531C13.4556 15.531 14.9897 14.0179 14.9897 12.1173C14.9897 10.2168 13.4556 8.69156 11.5134 8.69156C9.57113 8.69156 8 10.2168 8 12.1173Z" fill="#757B8C"/>
</svg>
