<svg width="18" height="17" viewBox="0 0 18 17" fill="none" xmlns="http://www.w3.org/2000/svg">
<path d="M12.736 11.2421C12.3858 11.6032 12.3864 12.1773 12.7372 12.5378V12.5378C13.1022 12.9128 13.7047 12.9128 14.0697 12.5378L18 8.5L14.0697 4.46221C13.7047 4.08723 13.1022 4.08723 12.7372 4.46221V4.46221C12.3864 4.82265 12.3858 5.39677 12.736 5.7579L14.479 7.55556H6.53372C6.01211 7.55556 5.58927 7.9784 5.58927 8.5V8.5C5.58927 9.0216 6.01211 9.44444 6.53372 9.44444H14.479L12.736 11.2421ZM1.83863 0H9.53848C10.0261 0 10.4938 0.199007 10.8386 0.553243C11.1834 0.907478 11.3771 1.38792 11.3771 1.88889V4.74735C11.3771 5.25508 10.9655 5.66667 10.4578 5.66667V5.66667C9.95007 5.66667 9.53848 5.25508 9.53848 4.74735V1.88889H1.83863V15.1111H9.53848V12.2526C9.53848 11.7449 9.95007 11.3333 10.4578 11.3333V11.3333C10.9655 11.3333 11.3771 11.7449 11.3771 12.2526V15.1111C11.3771 15.6121 11.1834 16.0925 10.8386 16.4468C10.4938 16.801 10.0261 17 9.53848 17H1.83863C0.827383 17 3.13797e-07 16.15 3.13797e-07 15.1111V1.88889C3.13797e-07 0.85 0.827383 0 1.83863 0Z" fill="white"/>
</svg>
