<svg width="18" height="17" viewBox="0 0 18 17" fill="none" xmlns="http://www.w3.org/2000/svg">
<path opacity="0.4" d="M10.1739 11.3407H3.91304C2.87559 11.3395 1.88095 10.9269 1.14736 10.1933C0.413771 9.45972 0.00113932 8.46509 0 7.42763V4.2972C0.00113932 3.25974 0.413771 2.26511 1.14736 1.53152C1.88095 0.797926 2.87559 0.385295 3.91304 0.384155H10.1739C11.2114 0.385295 12.206 0.797926 12.9396 1.53152C13.6732 2.26511 14.0858 3.25974 14.087 4.2972V7.42763C14.0858 8.46509 13.6732 9.45972 12.9396 10.1933C12.206 10.9269 11.2114 11.3395 10.1739 11.3407ZM3.91304 2.38416C3.29055 2.38478 2.94017 2.44399 2.5 2.88416C2.05983 3.32432 2.00062 3.67471 2 4.2972V7.42763C2.00062 8.05012 2.01635 8.44399 2.45652 8.88416C2.89669 9.32432 3.29055 9.38353 3.91304 9.38416H10.1739C10.7964 9.38353 11.1903 9.32432 11.6304 8.88416C12.0706 8.44399 11.9994 8.05012 12 7.42763V4.2972C11.9994 3.67471 12.0271 3.32432 11.587 2.88416C11.1468 2.44399 10.7964 2.38478 10.1739 2.38416H3.91304Z" fill="#757B8C"/>
<path d="M7.8252 16.0363H14.0861C15.1235 16.0352 16.1182 15.6226 16.8517 14.889C17.5853 14.1554 17.998 13.1607 17.9991 12.1233V8.99285C17.998 7.95539 17.5853 6.96076 16.8517 6.22717C16.1182 5.49357 15.1235 5.08094 14.0861 5.0798H7.8252C6.78774 5.08094 5.79311 5.49357 5.05951 6.22717C4.32592 6.96076 3.91329 7.95539 3.91215 8.99285L3.91211 9.57797H5.91215V8.99285C5.91277 8.37036 5.97198 8.01997 6.41215 7.5798C6.85232 7.13964 7.2027 7.08043 7.8252 7.0798H14.0861C14.7086 7.08043 15.0589 7.13964 15.4991 7.5798C15.9393 8.01997 15.9115 8.37036 15.9122 8.99285V12.1233C15.9115 12.7458 15.9828 13.1396 15.5426 13.5798C15.1024 14.02 14.7086 14.0792 14.0861 14.0798H7.8252C7.2027 14.0792 6.80884 14.02 6.36867 13.5798C5.92851 13.1396 5.91277 12.7458 5.91215 12.1233V11.3406H3.91211L3.91215 12.1233C3.91329 13.1607 4.32592 14.1554 5.05951 14.889C5.79311 15.6226 6.78774 16.0352 7.8252 16.0363Z" fill="#757B8C"/>
</svg>
