<svg width="14" height="13" viewBox="0 0 14 13" fill="none" xmlns="http://www.w3.org/2000/svg">
<path d="M11.3394 1.90938C10.7377 1.30394 10.022 0.823519 9.23366 0.495813C8.44528 0.168107 7.59979 -0.000401664 6.74593 7.18936e-07C3.15244 7.18936e-07 0.25 2.90875 0.25 6.5C0.25 10.0913 3.15244 13 6.74593 13C9.77846 13 12.3069 10.9281 13.0305 8.125H11.3394C11.0045 9.07523 10.3828 9.89818 9.56004 10.4803C8.73727 11.0624 7.75402 11.375 6.74593 11.375C4.05488 11.375 1.86789 9.18938 1.86789 6.5C1.86789 3.81063 4.05488 1.625 6.74593 1.625C8.09553 1.625 9.29878 2.18563 10.1768 3.07125L7.55894 5.6875H13.25V7.18936e-07L11.3394 1.90938Z" fill="white"/>
</svg>
