<svg width="79" height="79" viewBox="0 0 79 79" fill="none" xmlns="http://www.w3.org/2000/svg">
<path d="M34.2275 7.56464C37.2921 5.04806 41.7079 5.04806 44.7725 7.56464C47.3626 9.69164 50.6599 10.763 54.0056 10.5647C57.9641 10.33 61.5366 12.9256 62.5366 16.7628C63.3819 20.0061 65.4197 22.8109 68.243 24.617C71.5834 26.7539 72.948 30.9536 71.5016 34.6458C70.2791 37.7665 70.2791 41.2335 71.5016 44.3542C72.948 48.0464 71.5834 52.2461 68.243 54.383C65.4197 56.1891 63.3819 58.9939 62.5366 62.2372C61.5366 66.0744 57.9641 68.67 54.0056 68.4353C50.6599 68.237 47.3626 69.3084 44.7725 71.4354C41.7079 73.9519 37.2921 73.9519 34.2275 71.4354C31.6374 69.3084 28.3401 68.237 24.9944 68.4353C21.0359 68.67 17.4634 66.0744 16.4634 62.2372C15.6181 58.9939 13.5802 56.1891 10.7569 54.383C7.41655 52.2461 6.05197 48.0464 7.49839 44.3542C8.72089 41.2335 8.72089 37.7665 7.49839 34.6458C6.05197 30.9536 7.41655 26.7539 10.757 24.617C13.5802 22.8109 15.6181 20.0061 16.4634 16.7628C17.4634 12.9256 21.0359 10.33 24.9944 10.5647C28.3401 10.763 31.6374 9.69165 34.2275 7.56464Z" stroke="#27AE60" stroke-width="5"/>
<path d="M26 39.3351L35.5102 49L54 30" stroke="#27AE60" stroke-width="6" stroke-linecap="round" stroke-linejoin="round"/>
</svg>
