<svg width="12" height="12" viewBox="0 0 12 12" fill="none" xmlns="http://www.w3.org/2000/svg">
<path d="M6 12C9.31406 12 12 9.31406 12 6C12 2.68594 9.31406 0 6 0C2.68594 0 0 2.68594 0 6C0 9.31406 2.68594 12 6 12ZM5.4375 8.0625V6.5625H3.9375C3.62578 6.5625 3.375 6.31172 3.375 6C3.375 5.68828 3.62578 5.4375 3.9375 5.4375H5.4375V3.9375C5.4375 3.62578 5.68828 3.375 6 3.375C6.31172 3.375 6.5625 3.62578 6.5625 3.9375V5.4375H8.0625C8.37422 5.4375 8.625 5.68828 8.625 6C8.625 6.31172 8.37422 6.5625 8.0625 6.5625H6.5625V8.0625C6.5625 8.37422 6.31172 8.625 6 8.625C5.68828 8.625 5.4375 8.37422 5.4375 8.0625Z" fill="#246CF9"/>
</svg>
