<svg width="22" height="18" viewBox="0 0 22 18" fill="none" xmlns="http://www.w3.org/2000/svg">
<path d="M6.33982 0.257663C6.75234 0.628511 6.78567 1.2577 6.41483 1.67022L3.41471 5.00368C3.23137 5.20785 2.97303 5.32869 2.69802 5.33286C2.42301 5.33702 2.1605 5.23285 1.96466 5.04118L0.293761 3.37445C-0.0979204 2.98277 -0.0979204 2.34941 0.293761 1.96189C0.685443 1.57438 1.3188 1.57021 1.70631 1.96189L2.62718 2.88276L4.9231 0.332666C5.29395 -0.0798495 5.92314 -0.113184 6.33566 0.257663H6.33982ZM6.33982 6.92458C6.75234 7.29543 6.78567 7.92462 6.41483 8.33714L3.41471 11.6706C3.23137 11.8748 2.97303 11.9956 2.69802 11.9998C2.42301 12.0039 2.1605 11.8998 1.96466 11.7081L0.293761 10.0414C-0.0979204 9.64968 -0.0979204 9.01633 0.293761 8.62881C0.685443 8.2413 1.3188 8.23713 1.70631 8.62881L2.62718 9.54968L4.9231 6.99958C5.29395 6.58707 5.92314 6.55373 6.33566 6.92458H6.33982ZM9.33577 2.66609C9.33577 1.92856 9.93162 1.3327 10.6692 1.3327H20.0028C20.7404 1.3327 21.3362 1.92856 21.3362 2.66609C21.3362 3.40362 20.7404 3.99947 20.0028 3.99947H10.6692C9.93162 3.99947 9.33577 3.40362 9.33577 2.66609ZM9.33577 9.33301C9.33577 8.59548 9.93162 7.99962 10.6692 7.99962H20.0028C20.7404 7.99962 21.3362 8.59548 21.3362 9.33301C21.3362 10.0705 20.7404 10.6664 20.0028 10.6664H10.6692C9.93162 10.6664 9.33577 10.0705 9.33577 9.33301ZM6.669 15.9999C6.669 15.2624 7.26486 14.6665 8.00239 14.6665H20.0028C20.7404 14.6665 21.3362 15.2624 21.3362 15.9999C21.3362 16.7375 20.7404 17.3333 20.0028 17.3333H8.00239C7.26486 17.3333 6.669 16.7375 6.669 15.9999ZM2.00216 18C0.897951 18 0.0020834 17.1041 0.0020834 15.9999C0.0020834 14.8957 0.897951 13.9998 2.00216 13.9998C3.10637 13.9998 4.00223 14.8957 4.00223 15.9999C4.00223 17.1041 3.10637 18 2.00216 18Z" fill="#757B8C"/>
</svg>
