<svg width="11" height="11" viewBox="0 0 11 11" fill="none" xmlns="http://www.w3.org/2000/svg">
<path fill-rule="evenodd" clip-rule="evenodd" d="M10.3645 6.369C10.5716 6.4735 10.7313 6.6385 10.8438 6.8035C11.0627 7.1445 11.0449 7.5625 10.8319 7.931L10.4178 8.591C10.1988 8.943 9.79061 9.163 9.37053 9.163C9.16345 9.163 8.9327 9.108 8.74337 8.998C8.58954 8.9045 8.41204 8.8715 8.22271 8.8715C7.63696 8.8715 7.14589 9.328 7.12814 9.8725C7.12814 10.505 6.58381 11 5.9034 11H5.09875C4.41242 11 3.86809 10.505 3.86809 9.8725C3.85626 9.328 3.36518 8.8715 2.77944 8.8715C2.58419 8.8715 2.40669 8.9045 2.25878 8.998C2.06945 9.108 1.83279 9.163 1.63162 9.163C1.20563 9.163 0.797381 8.943 0.578467 8.591L0.170222 7.931C-0.048692 7.5735 -0.0605252 7.1445 0.158389 6.8035C0.253054 6.6385 0.430552 6.4735 0.631716 6.369C0.797381 6.292 0.90388 6.1655 1.00446 6.017C1.30029 5.544 1.12279 4.9225 0.619883 4.642C0.0341403 4.3285 -0.155191 3.63 0.182055 3.0855L0.578467 2.4365C0.92163 1.892 1.65529 1.6995 2.24695 2.0185C2.76169 2.2825 3.43027 2.1065 3.73201 1.639C3.82668 1.485 3.87993 1.32 3.86809 1.155C3.85626 0.9405 3.92134 0.737 4.03376 0.572C4.25267 0.231 4.64908 0.011 5.081 0H5.91524C6.35306 0 6.74948 0.231 6.96839 0.572C7.07489 0.737 7.14589 0.9405 7.12814 1.155C7.1163 1.32 7.16955 1.485 7.26422 1.639C7.56597 2.1065 8.23454 2.2825 8.7552 2.0185C9.34094 1.6995 10.0805 1.892 10.4178 2.4365L10.8142 3.0855C11.1573 3.63 10.968 4.3285 10.3763 4.642C9.87344 4.9225 9.69594 5.544 9.99769 6.017C10.0924 6.1655 10.1988 6.292 10.3645 6.369ZM5.49955 8.17144C6.97494 8.17144 8.17098 6.9754 8.17098 5.50001C8.17098 4.02462 6.97494 2.82858 5.49955 2.82858C4.02416 2.82858 2.82812 4.02462 2.82812 5.50001C2.82812 6.9754 4.02416 8.17144 5.49955 8.17144Z" fill="#757B8C"/>
</svg>
