<svg width="20" height="10" viewBox="0 0 20 10" fill="none" xmlns="http://www.w3.org/2000/svg">
<path fill-rule="evenodd" clip-rule="evenodd" d="M9.9928 1.34526C8.84292 1.33088 5.75548 1.2044 2.6048 0.813435C2.25504 0.731985 1.46354 0.724319 1.09558 1.34526C0.635625 2.12143 -0.557379 6.09675 0.305033 6.85855C1.16745 7.62035 3.63971 9.15832 5.652 9.48891C6.88237 9.69104 7.86555 8.89372 8.66726 8.24356C9.17678 7.83037 9.613 7.47661 9.9928 7.47661H10.0072C10.387 7.47661 10.8232 7.83037 11.3327 8.24356C12.1345 8.89372 13.1176 9.69104 14.348 9.48891C16.3603 9.15832 18.8326 7.62035 19.695 6.85855C20.5574 6.09675 19.3644 2.12143 18.9044 1.34526C18.5365 0.724319 17.745 0.731985 17.3952 0.813435C14.2445 1.2044 11.1571 1.33088 10.0072 1.34526H9.9928ZM5.15533 6.37953C6.3673 6.63389 7.45422 6.34255 7.58303 5.72879C7.71184 5.11504 6.83377 4.41129 5.6218 4.15693C4.40983 3.90257 3.32291 4.19391 3.1941 4.80767C3.06529 5.42142 3.94336 6.12517 5.15533 6.37953ZM14.859 6.37953C13.647 6.63389 12.5601 6.34255 12.4313 5.72879C12.3025 5.11504 13.1806 4.41129 14.3925 4.15693C15.6045 3.90257 16.6914 4.19391 16.8202 4.80767C16.949 5.42142 16.071 6.12517 14.859 6.37953Z" fill="#757B8C"/>
</svg>
