<svg width="19" height="15" viewBox="0 0 19 15" fill="none" xmlns="http://www.w3.org/2000/svg">
<path fill-rule="evenodd" clip-rule="evenodd" d="M3.55078 12.388V14.428C3.57083 14.5714 3.64183 14.7028 3.75081 14.7982C3.85978 14.8935 3.99944 14.9464 4.14424 14.9473H14.8914C15.0362 14.9464 15.1759 14.8935 15.2848 14.7982C15.3938 14.7028 15.4648 14.5714 15.4849 14.428V12.388C15.463 11.9269 15.294 11.4849 15.0027 11.1269C14.7243 10.807 14.3705 10.5616 13.9734 10.4129L13.3892 10.1996C12.7702 9.80857 12.0617 9.58198 11.3307 9.54124C10.6537 9.54124 10.6074 9.81941 10.459 10.1903C10.3749 10.3648 10.2433 10.5121 10.0793 10.6152C9.91524 10.7182 9.72545 10.7729 9.53173 10.7729C9.33801 10.7729 9.14822 10.7182 8.98419 10.6152C8.82015 10.5121 8.68853 10.3648 8.60445 10.1903C8.56842 10.0071 8.47793 9.83907 8.34481 9.70815C8.10144 9.6046 7.83966 9.55123 7.57517 9.55123C7.31068 9.55123 7.04891 9.6046 6.80553 9.70815C6.01344 10.0304 5.23955 10.3956 4.48733 10.8023C4.21512 10.9865 3.98958 11.2315 3.82862 11.518C3.66766 11.8045 3.5757 12.1246 3.56006 12.4529" fill="white"/>
<path fill-rule="evenodd" clip-rule="evenodd" d="M5.7749 4.23707C5.78903 4.94183 5.99508 5.62939 6.37087 6.22577C6.74667 6.82214 7.27798 7.30474 7.90764 7.62164C8.51754 7.91077 9.19397 8.03062 9.86608 7.96863C10.5382 7.90664 11.1813 7.66508 11.728 7.26927C11.9968 7.08539 12.2346 6.86004 12.4328 6.60162C12.8861 6.0541 13.1726 5.38783 13.258 4.68215C13.3377 4.02206 13.2384 3.3527 12.9706 2.74414C12.7008 2.12689 12.2681 1.59476 11.7188 1.20485C11.0513 0.700069 10.227 0.447211 9.39128 0.49086C8.43102 0.521687 7.52018 0.923912 6.85054 1.61286C6.16272 2.31409 5.77379 3.25485 5.76562 4.23707" fill="white"/>
<path opacity="0.4" fill-rule="evenodd" clip-rule="evenodd" d="M3.47735 9.19825C3.8848 9.23136 4.29384 9.15785 4.66427 8.98496C4.90792 8.85634 5.13004 8.69053 5.32264 8.49351C5.63431 8.16875 5.8468 7.76179 5.93516 7.32043C6.02352 6.87907 5.98407 6.42164 5.82145 6.00193C5.65882 5.58221 5.37978 5.21764 5.0171 4.95104C4.65443 4.68444 4.2232 4.52691 3.77408 4.49694C3.43136 4.47103 3.08717 4.52165 2.76642 4.64514C2.44567 4.76863 2.15639 4.96188 1.91953 5.21093C1.50214 5.6518 1.26953 6.23585 1.26953 6.84295C1.26953 7.45006 1.50214 8.0341 1.91953 8.47497C2.33422 8.90192 2.89268 9.15967 3.48663 9.19825" fill="white"/>
<path opacity="0.4" fill-rule="evenodd" clip-rule="evenodd" d="M13.0389 6.79639C13.0266 7.10646 13.0788 7.41574 13.1921 7.70462C13.3054 7.99351 13.4774 8.25576 13.6972 8.47479C13.8813 8.66711 14.094 8.82975 14.3278 8.95696C14.6884 9.13747 15.089 9.22348 15.492 9.20698C15.8949 9.19047 16.2871 9.07199 16.6318 8.86259C16.9764 8.65319 17.2623 8.35972 17.4627 8.00971C17.663 7.65969 17.7713 7.26456 17.7773 6.8613C17.7773 6.7964 17.7773 6.44404 17.7216 6.37913C17.689 6.22269 17.6392 6.07033 17.5733 5.92477C17.4027 5.52396 17.1244 5.17828 16.7691 4.92618C16.4139 4.67408 15.9957 4.52543 15.5611 4.49676C15.2435 4.47801 14.9254 4.52303 14.6256 4.62916C14.3257 4.73529 14.0501 4.90038 13.815 5.11471C13.58 5.32903 13.3902 5.58824 13.2569 5.87706C13.1236 6.16588 13.0495 6.47846 13.0389 6.79639Z" fill="white"/>
<path opacity="0.4" fill-rule="evenodd" clip-rule="evenodd" d="M0.0278172 12.3879C0.0278172 13.2689 0.426548 13.0927 2.69838 13.0927C2.78058 13.0972 2.86175 13.0727 2.92781 13.0236C2.99387 12.9745 3.04064 12.9038 3.06002 12.8238C3.04129 12.402 3.11452 11.9811 3.27464 11.5904C3.43475 11.1998 3.67793 10.8486 3.9873 10.5612C4.41385 10.1903 4.66421 10.3016 4.66421 9.86578C4.66421 9.62468 4.42312 9.49484 4.18203 9.49484H2.44802C2.16147 9.52632 1.88406 9.61459 1.63201 9.75448C1.0571 10.0419 0 10.3294 0 11.3494L0.0278172 12.3879Z" fill="white"/>
<path opacity="0.4" fill-rule="evenodd" clip-rule="evenodd" d="M14.4102 9.86586C14.4102 10.2924 14.6327 10.1811 15.0685 10.5428C16.4594 11.7297 15.5322 13.0928 16.3389 13.0928H18.4067C18.8147 13.0928 18.9631 12.8239 19.0002 12.4529V11.3495C19.0002 10.3295 17.9524 10.042 17.3774 9.75456C17.1254 9.61467 16.848 9.52641 16.5614 9.49492H14.8552C14.8014 9.48851 14.7468 9.49315 14.6948 9.50856C14.6428 9.52397 14.5945 9.54983 14.5528 9.58454C14.5112 9.61926 14.477 9.66213 14.4525 9.7105C14.428 9.75887 14.4136 9.81173 14.4102 9.86586Z" fill="white"/>
</svg>
