<svg width="15" height="11" viewBox="0 0 15 11" fill="none" xmlns="http://www.w3.org/2000/svg">
<path d="M13.4582 2.7414C13.4677 2.8617 13.4677 2.98204 13.4677 3.10234C13.4677 6.77186 10.3744 11 4.72083 11C2.97906 11 1.36105 10.5445 0 9.75392C0.247472 9.77968 0.485393 9.78828 0.742386 9.78828C2.17955 9.78828 3.50254 9.35001 4.55902 8.60236C3.20749 8.57656 2.07487 7.77735 1.68464 6.67734C1.87501 6.70311 2.06535 6.7203 2.26524 6.7203C2.54125 6.7203 2.81729 6.68591 3.07425 6.62579C1.66562 6.36795 0.609114 5.25078 0.609114 3.90156V3.8672C1.01836 4.07345 1.49429 4.20235 1.9987 4.21952C1.17065 3.72107 0.628157 2.8703 0.628157 1.90779C0.628157 1.39218 0.780413 0.919521 1.04693 0.507018C2.56026 2.19139 4.83503 3.29137 7.38577 3.41171C7.33819 3.20546 7.30963 2.99063 7.30963 2.77578C7.30963 1.24608 8.6802 0 10.3839 0C11.269 0 12.0685 0.335155 12.6301 0.876562C13.3249 0.756255 13.9911 0.524213 14.5812 0.206252C14.3528 0.850797 13.8674 1.3922 13.2297 1.73593C13.8484 1.6758 14.448 1.52108 15 1.30626C14.5813 1.85624 14.0578 2.34606 13.4582 2.7414Z" fill="#246CF9"/>
</svg>
