<svg width="20" height="16" viewBox="0 0 20 16" fill="none" xmlns="http://www.w3.org/2000/svg">
<path d="M2 16C1.45 16 0.979333 15.8043 0.588 15.413C0.196 15.021 0 14.55 0 14V1.99999C0 1.44999 0.196 0.979322 0.588 0.587988C0.979333 0.195988 1.45 -1.14441e-05 2 -1.14441e-05H18C18.55 -1.14441e-05 19.021 0.195988 19.413 0.587988C19.8043 0.979322 20 1.44999 20 1.99999V14C20 14.55 19.8043 15.021 19.413 15.413C19.021 15.8043 18.55 16 18 16H2ZM2 3.99999H18V1.99999H2V3.99999ZM8.95 12.55L14.6 6.89999L13.15 5.44999L8.95 9.64999L6.85 7.54999L5.4 8.99999L8.95 12.55Z" fill="#757B8C"/>
</svg>
