<svg width="13" height="13" viewBox="0 0 13 13" fill="none" xmlns="http://www.w3.org/2000/svg">
<path d="M8.9375 6.5C8.9375 7.06367 8.90703 7.60703 8.85371 8.125H4.14629C4.09043 7.60703 4.0625 7.06367 4.0625 6.5C4.0625 5.93633 4.09297 5.39297 4.14629 4.875H8.85371C8.90957 5.39297 8.9375 5.93633 8.9375 6.5ZM9.66875 4.875H12.7943C12.9289 5.39551 13 5.93887 13 6.5C13 7.06113 12.9289 7.60449 12.7943 8.125H9.66875C9.72207 7.60195 9.75 7.05859 9.75 6.5C9.75 5.94141 9.72207 5.39805 9.66875 4.875ZM12.5277 4.0625H9.56465C9.31074 2.44004 8.80801 1.08164 8.16055 0.213281C10.1486 0.738867 11.766 2.18105 12.5252 4.0625H12.5277ZM8.74199 4.0625H4.25801C4.41289 3.13828 4.65156 2.3207 4.94355 1.65801C5.21016 1.05879 5.50723 0.624609 5.79414 0.350391C6.07852 0.08125 6.31465 0 6.5 0C6.68535 0 6.92148 0.08125 7.20586 0.350391C7.49277 0.624609 7.78984 1.05879 8.05645 1.65801C8.35098 2.31816 8.58965 3.13574 8.74199 4.0625ZM3.43535 4.0625H0.472266C1.23398 2.18105 2.84883 0.738867 4.83945 0.213281C4.19199 1.08164 3.68926 2.44004 3.43535 4.0625ZM0.205664 4.875H3.33125C3.27793 5.39805 3.25 5.94141 3.25 6.5C3.25 7.05859 3.27793 7.60195 3.33125 8.125H0.205664C0.0710938 7.60449 0 7.06113 0 6.5C0 5.93887 0.0710938 5.39551 0.205664 4.875ZM4.94355 11.3395C4.64902 10.6793 4.41289 9.86172 4.25801 8.9375H8.74199C8.58711 9.86172 8.34844 10.6793 8.05645 11.3395C7.78984 11.9387 7.49277 12.3729 7.20586 12.6471C6.92148 12.9187 6.68535 13 6.5 13C6.31465 13 6.07852 12.9188 5.79414 12.6496C5.50723 12.3754 5.21016 11.9412 4.94355 11.342V11.3395ZM3.43535 8.9375C3.68926 10.56 4.19199 11.9184 4.83945 12.7867C2.84883 12.2611 1.23398 10.8189 0.472266 8.9375H3.43535ZM12.5277 8.9375C11.766 10.8189 10.1512 12.2611 8.16309 12.7867C8.81055 11.9184 9.31074 10.56 9.56719 8.9375H12.5277Z" fill="#757B8C"/>
</svg>
