<svg width="15" height="14" viewBox="0 0 15 14" fill="none" xmlns="http://www.w3.org/2000/svg">
<path d="M14.1737 5.52352C14.1582 5.4539 14.1278 5.38841 14.0847 5.33149C14.0416 5.27456 13.9867 5.22753 13.9238 5.19356L12.437 4.37178C12.3573 4.21072 12.2675 4.05477 12.1683 3.90485L12.1996 2.21148C12.2001 2.14045 12.186 2.07007 12.1581 2.00473C12.1301 1.93939 12.089 1.88049 12.0371 1.83171C11.2968 1.16281 10.4213 0.659696 9.46955 0.356234C9.4012 0.334996 9.32911 0.328453 9.25803 0.337038C9.18695 0.345624 9.11852 0.369142 9.05724 0.40604L7.60164 1.27763C7.42047 1.2714 7.24555 1.2714 7.06438 1.27763L5.60878 0.40604C5.5475 0.369142 5.47906 0.345624 5.40799 0.337038C5.33691 0.328453 5.26482 0.334996 5.19647 0.356234C4.24343 0.659927 3.36756 1.16538 2.62887 1.83794C2.57661 1.88504 2.53507 1.94274 2.50705 2.00717C2.47903 2.07161 2.46519 2.14127 2.46644 2.21148L2.49768 3.90485C2.39772 4.05427 2.31026 4.20991 2.2228 4.37178L0.735967 5.19356C0.673946 5.22788 0.620077 5.27512 0.578033 5.33206C0.535988 5.389 0.506755 5.45431 0.492326 5.52352C0.279902 6.49579 0.279902 7.50222 0.492326 8.47448C0.507844 8.5441 0.538185 8.60959 0.581296 8.66652C0.624408 8.72344 0.679285 8.77048 0.742214 8.80444L2.22905 9.62623C2.30875 9.78729 2.39847 9.94323 2.49768 10.0932L2.46644 11.7865C2.46587 11.8576 2.48 11.9279 2.50795 11.9933C2.53589 12.0586 2.57706 12.1175 2.62887 12.1663C3.36918 12.8352 4.24469 13.3383 5.19647 13.6418C5.26482 13.663 5.33691 13.6696 5.40799 13.661C5.47906 13.6524 5.5475 13.6289 5.60878 13.592L7.06438 12.7204H7.60164L9.06348 13.592C9.13947 13.6418 9.22867 13.6678 9.31962 13.6667C9.37043 13.6645 9.42078 13.6561 9.46955 13.6418C10.4226 13.3381 11.2985 12.8326 12.0371 12.1601C12.0894 12.113 12.1309 12.0553 12.159 11.9908C12.187 11.9264 12.2008 11.8567 12.1996 11.7865L12.1683 10.0932C12.2683 9.94373 12.3558 9.78809 12.4432 9.62623L13.93 8.80444C13.9921 8.77012 14.0459 8.72289 14.088 8.66594C14.13 8.609 14.1593 8.5437 14.1737 8.47448C14.3861 7.50222 14.3861 6.49579 14.1737 5.52352ZM7.33301 9.73829C6.78935 9.73829 6.25791 9.57763 5.80587 9.27664C5.35384 8.97564 5.00153 8.54782 4.79348 8.04728C4.58543 7.54674 4.531 6.99596 4.63706 6.46459C4.74312 5.93322 5.00491 5.44513 5.38934 5.06203C5.77376 4.67894 6.26354 4.41805 6.79675 4.31235C7.32996 4.20666 7.88264 4.2609 8.38492 4.46823C8.88719 4.67556 9.31649 5.02666 9.61852 5.47714C9.92056 5.92761 10.0818 6.45722 10.0818 6.999C10.0818 7.72551 9.79217 8.42225 9.27668 8.93597C8.76119 9.44969 8.06203 9.73829 7.33301 9.73829Z" fill="white"/>
</svg>
