<svg width="17" height="13" viewBox="0 0 17 13" fill="none" xmlns="http://www.w3.org/2000/svg">
<path d="M3.65625 4.0625C2.53398 4.0625 1.625 3.15352 1.625 2.03125C1.625 0.908984 2.53398 0 3.65625 0C4.77852 0 5.6875 0.908984 5.6875 2.03125C5.6875 3.15352 4.77852 4.0625 3.65625 4.0625ZM13 4.0625C11.8777 4.0625 10.9688 3.15352 10.9688 2.03125C10.9688 0.908984 11.8777 0 13 0C14.1223 0 15.0312 0.908984 15.0312 2.03125C15.0312 3.15352 14.1223 4.0625 13 4.0625ZM0 7.58418C0 6.08867 1.21367 4.875 2.70918 4.875H3.79336C4.19707 4.875 4.58047 4.96387 4.92578 5.12129C4.89277 5.3041 4.87754 5.49453 4.87754 5.6875C4.87754 6.65742 5.3041 7.52832 5.97695 8.125C5.97187 8.125 5.9668 8.125 5.95918 8.125H0.54082C0.24375 8.125 0 7.88125 0 7.58418ZM10.2908 8.125C10.2857 8.125 10.2807 8.125 10.273 8.125C10.9484 7.52832 11.3725 6.65742 11.3725 5.6875C11.3725 5.49453 11.3547 5.30664 11.3242 5.12129C11.6695 4.96133 12.0529 4.875 12.4566 4.875H13.5408C15.0363 4.875 16.25 6.08867 16.25 7.58418C16.25 7.88379 16.0063 8.125 15.7092 8.125H10.2908ZM10.5625 5.6875C10.5625 7.0332 9.4707 8.125 8.125 8.125C6.7793 8.125 5.6875 7.0332 5.6875 5.6875C5.6875 4.3418 6.7793 3.25 8.125 3.25C9.4707 3.25 10.5625 4.3418 10.5625 5.6875ZM3.25 12.3221C3.25 10.4533 4.76582 8.9375 6.63457 8.9375H9.61543C11.4842 8.9375 13 10.4533 13 12.3221C13 12.6953 12.6979 13 12.3221 13H3.92793C3.55469 13 3.25 12.6979 3.25 12.3221Z" fill="#757B8C"/>
</svg>
