<svg width="15" height="11" viewBox="0 0 15 11" fill="none" xmlns="http://www.w3.org/2000/svg">
<path d="M14.6866 1.72113C14.514 1.04365 14.0058 0.510096 13.3604 0.329026C12.1906 0 7.5 0 7.5 0C7.5 0 2.80939 0 1.6396 0.329026C0.994234 0.510125 0.485952 1.04365 0.31344 1.72113C0 2.94909 0 5.51111 0 5.51111C0 5.51111 0 8.07314 0.31344 9.3011C0.485952 9.97858 0.994234 10.4899 1.6396 10.671C2.80939 11 7.5 11 7.5 11C7.5 11 12.1906 11 13.3604 10.671C14.0058 10.4899 14.514 9.97858 14.6866 9.3011C15 8.07314 15 5.51111 15 5.51111C15 5.51111 15 2.94909 14.6866 1.72113ZM5.9659 7.83724V3.18499L9.88634 5.51117L5.9659 7.83724Z" fill="#DE0000"/>
</svg>
