<svg width="13" height="10" viewBox="0 0 13 10" fill="none" xmlns="http://www.w3.org/2000/svg">
<path d="M4.02158 8.10536L1.31081 5.32204C1.23992 5.24837 1.1555 5.18988 1.06243 5.14996C0.969368 5.11004 0.869511 5.08949 0.768651 5.08949C0.667791 5.08949 0.567934 5.11004 0.474868 5.14996C0.381803 5.18988 0.297381 5.24837 0.226496 5.32204C0.154746 5.39483 0.09778 5.48151 0.0589002 5.57706C0.0200203 5.67262 0 5.77515 0 5.87871C0 5.98227 0.0200203 6.0848 0.0589002 6.18035C0.09778 6.27591 0.154746 6.36259 0.226496 6.43537L3.47168 9.7674C3.77374 10.0775 4.26168 10.0775 4.56373 9.7674L12.7735 1.34588C12.8453 1.2731 12.9022 1.18642 12.9411 1.09086C12.98 0.995308 13 0.892779 13 0.78922C13 0.685661 12.98 0.583132 12.9411 0.487576C12.9022 0.39202 12.8453 0.305339 12.7735 0.232557C12.7026 0.158887 12.6182 0.100396 12.5251 0.0604761C12.4321 0.0205558 12.3322 0 12.2313 0C12.1305 0 12.0306 0.0205558 11.9376 0.0604761C11.8445 0.100396 11.7601 0.158887 11.6892 0.232557L4.02158 8.10536Z" fill="#246CF9"/>
</svg>
