<svg width="23" height="19" viewBox="0 0 23 19" fill="none" xmlns="http://www.w3.org/2000/svg">
<path fill-rule="evenodd" clip-rule="evenodd" d="M20.556 6.33395H15.7143C15.4301 6.33395 15.1998 6.56426 15.1998 6.84837V16.2677C15.1998 16.5518 15.4301 16.7821 15.7143 16.7821H20.556C20.8401 16.7821 21.0704 16.5518 21.0704 16.2676V6.84836C21.0704 6.56426 20.8401 6.33395 20.556 6.33395ZM15.7143 4.7907C14.5778 4.7907 13.6566 5.71195 13.6566 6.84837V16.2677C13.6566 17.4041 14.5778 18.3253 15.7143 18.3253H20.556C21.6924 18.3253 22.6137 17.4041 22.6137 16.2676V6.84836C22.6137 5.71195 21.6924 4.7907 20.556 4.7907H15.7143Z" fill="#757B8C"/>
<path d="M2.3777 2.64019C2.3777 1.36172 3.4141 0.325317 4.69257 0.325317H15.7687C17.0471 0.325317 18.0835 1.36172 18.0835 2.64019V3.53695H16.5403V2.64019C16.5403 2.21403 16.1948 1.86857 15.7687 1.86857H4.69257C4.26642 1.86857 3.92095 2.21403 3.92095 2.64019V11.5253H12.4519V13.8799H1.90318C0.86287 13.8799 0.0195312 13.0365 0.0195312 11.9962C0.0195312 11.7361 0.230366 11.5253 0.490444 11.5253H2.3777V2.64019Z" fill="#757B8C"/>
</svg>
