<svg width="177" height="28" viewBox="0 0 177 28" fill="none" xmlns="http://www.w3.org/2000/svg">
<path d="M9.77624 22.8225C8.43783 22.8225 7.19143 22.605 6.03705 22.17C4.8994 21.7183 3.90396 21.0909 3.05072 20.2879C2.21421 19.4681 1.56174 18.5061 1.09329 17.4019C0.624847 16.2977 0.390625 15.0931 0.390625 13.7882C0.390625 12.4832 0.624847 11.2787 1.09329 10.1745C1.56174 9.07029 2.22258 8.11667 3.07582 7.31362C3.92905 6.49384 4.9245 5.86646 6.06215 5.43148C7.1998 4.97976 8.4462 4.75391 9.80134 4.75391C11.2401 4.75391 12.5534 5.00486 13.7413 5.50676C14.9291 5.99194 15.9329 6.7197 16.7527 7.69005L14.6447 9.67257C14.009 8.98664 13.2979 8.47637 12.5116 8.14176C11.7253 7.79043 10.8721 7.61476 9.95191 7.61476C9.03175 7.61476 8.18688 7.76534 7.41729 8.06648C6.66443 8.36762 6.00359 8.79424 5.43477 9.34633C4.88267 9.89843 4.44769 10.5509 4.12982 11.3038C3.82867 12.0566 3.6781 12.8848 3.6781 13.7882C3.6781 14.6916 3.82867 15.5198 4.12982 16.2726C4.44769 17.0255 4.88267 17.678 5.43477 18.23C6.00359 18.7821 6.66443 19.2088 7.41729 19.5099C8.18688 19.811 9.03175 19.9616 9.95191 19.9616C10.8721 19.9616 11.7253 19.7943 12.5116 19.4597C13.2979 19.1084 14.009 18.5814 14.6447 17.8787L16.7527 19.8863C15.9329 20.84 14.9291 21.5677 13.7413 22.0696C12.5534 22.5715 11.2318 22.8225 9.77624 22.8225Z" fill="white"/>
<path d="M19.0756 22.5715V9.17067H22.0619V12.8597L21.7106 11.7806C22.1121 10.8771 22.7395 10.1912 23.5927 9.72276C24.4627 9.25432 25.5418 9.0201 26.83 9.0201V12.0064C26.6962 11.973 26.5707 11.9562 26.4536 11.9562C26.3365 11.9395 26.2194 11.9311 26.1023 11.9311C24.9144 11.9311 23.9692 12.2825 23.2665 12.9851C22.5638 13.6711 22.2125 14.7 22.2125 16.0719V22.5715H19.0756Z" fill="white"/>
<path d="M30.5835 27.6157C29.931 27.6157 29.2786 27.5069 28.6261 27.2894C27.9736 27.0719 27.4299 26.7708 26.9949 26.386L28.2497 24.0772C28.5675 24.3617 28.9272 24.5875 29.3288 24.7548C29.7303 24.9221 30.1402 25.0058 30.5584 25.0058C31.1273 25.0058 31.5873 24.8636 31.9387 24.5791C32.29 24.2947 32.6162 23.8179 32.9174 23.1487L33.6953 21.392L33.9463 21.0156L39.0155 9.17067H42.027L35.7531 23.6506C35.3349 24.6544 34.8664 25.4491 34.3478 26.0347C33.8459 26.6202 33.2771 27.0301 32.6413 27.2643C32.0223 27.4986 31.3364 27.6157 30.5835 27.6157ZM33.344 23.0483L27.296 9.17067H30.5584L35.4771 20.7396L33.344 23.0483Z" fill="white"/>
<path d="M50.9138 22.7472C49.8263 22.7472 48.8309 22.4962 47.9275 21.9943C47.0408 21.4924 46.3297 20.7396 45.7944 19.7358C45.2757 18.7152 45.0164 17.427 45.0164 15.8711C45.0164 14.2985 45.2674 13.0102 45.7693 12.0064C46.2879 11.0026 46.9906 10.2581 47.8773 9.77295C48.764 9.27105 49.7762 9.0201 50.9138 9.0201C52.2355 9.0201 53.3982 9.30451 54.402 9.87333C55.4226 10.4422 56.2256 11.2368 56.8112 12.2574C57.4135 13.2779 57.7146 14.4825 57.7146 15.8711C57.7146 17.2597 57.4135 18.4726 56.8112 19.5099C56.2256 20.5304 55.4226 21.3251 54.402 21.894C53.3982 22.4628 52.2355 22.7472 50.9138 22.7472ZM43.4856 27.44V9.17067H46.4719V12.3327L46.3716 15.8962L46.6225 19.4597V27.44H43.4856ZM50.5625 20.062C51.3153 20.062 51.9845 19.8947 52.5701 19.5601C53.1724 19.2255 53.6492 18.7403 54.0005 18.1046C54.3519 17.4688 54.5275 16.7243 54.5275 15.8711C54.5275 15.0011 54.3519 14.2566 54.0005 13.6376C53.6492 13.0019 53.1724 12.5167 52.5701 12.1821C51.9845 11.8475 51.3153 11.6802 50.5625 11.6802C49.8096 11.6802 49.132 11.8475 48.5298 12.1821C47.9275 12.5167 47.4507 13.0019 47.0993 13.6376C46.748 14.2566 46.5723 15.0011 46.5723 15.8711C46.5723 16.7243 46.748 17.4688 47.0993 18.1046C47.4507 18.7403 47.9275 19.2255 48.5298 19.5601C49.132 19.8947 49.8096 20.062 50.5625 20.062Z" fill="white"/>
<path d="M65.2318 22.7472C63.7596 22.7472 62.6219 22.3708 61.8189 21.6179C61.0158 20.8483 60.6143 19.719 60.6143 18.23V6.20943H63.7512V18.1548C63.7512 18.7905 63.9101 19.284 64.228 19.6354C64.5626 19.9867 65.0227 20.1624 65.6082 20.1624C66.3109 20.1624 66.8965 19.9783 67.3649 19.6103L68.2432 21.8438C67.8752 22.1449 67.4235 22.3708 66.8881 22.5213C66.3527 22.6719 65.8006 22.7472 65.2318 22.7472ZM58.4059 11.7806V9.27105H67.3398V11.7806H58.4059Z" fill="white"/>
<path d="M75.9036 22.7472C74.5317 22.7472 73.3104 22.4544 72.2397 21.8689C71.1689 21.2666 70.3241 20.4468 69.705 19.4095C69.086 18.3723 68.7765 17.1928 68.7765 15.8711C68.7765 14.5327 69.086 13.3532 69.705 12.3327C70.3241 11.2954 71.1689 10.484 72.2397 9.89843C73.3104 9.31287 74.5317 9.0201 75.9036 9.0201C77.2922 9.0201 78.5218 9.31287 79.5926 9.89843C80.68 10.484 81.5249 11.287 82.1272 12.3076C82.7462 13.3281 83.0557 14.516 83.0557 15.8711C83.0557 17.1928 82.7462 18.3723 82.1272 19.4095C81.5249 20.4468 80.68 21.2666 79.5926 21.8689C78.5218 22.4544 77.2922 22.7472 75.9036 22.7472ZM75.9036 20.062C76.6731 20.062 77.3591 19.8947 77.9614 19.5601C78.5637 19.2255 79.0321 18.7403 79.3667 18.1046C79.718 17.4688 79.8937 16.7243 79.8937 15.8711C79.8937 15.0011 79.718 14.2566 79.3667 13.6376C79.0321 13.0019 78.5637 12.5167 77.9614 12.1821C77.3591 11.8475 76.6815 11.6802 75.9287 11.6802C75.1591 11.6802 74.4731 11.8475 73.8708 12.1821C73.2853 12.5167 72.8168 13.0019 72.4655 13.6376C72.1142 14.2566 71.9385 15.0011 71.9385 15.8711C71.9385 16.7243 72.1142 17.4688 72.4655 18.1046C72.8168 18.7403 73.2853 19.2255 73.8708 19.5601C74.4731 19.8947 75.1507 20.062 75.9036 20.062Z" fill="white"/>
<path d="M100.494 22.8225C99.1225 22.8225 97.8593 22.605 96.705 22.17C95.5673 21.7183 94.5719 21.0909 93.7186 20.2879C92.8654 19.4681 92.2046 18.5061 91.7361 17.4019C91.2677 16.2977 91.0334 15.0931 91.0334 13.7882C91.0334 12.4832 91.2677 11.2787 91.7361 10.1745C92.2046 9.07029 92.8654 8.11667 93.7186 7.31362C94.5886 6.49384 95.6008 5.86646 96.7552 5.43148C97.9095 4.97976 99.1727 4.75391 100.545 4.75391C102.034 4.75391 103.372 4.99649 104.56 5.48167C105.764 5.96684 106.777 6.67788 107.596 7.61476L105.538 9.62238C104.853 8.93645 104.108 8.43454 103.305 8.11667C102.519 7.78207 101.649 7.61476 100.695 7.61476C99.7749 7.61476 98.9217 7.76534 98.1354 8.06648C97.3491 8.36762 96.6715 8.79424 96.1027 9.34633C95.5339 9.89843 95.0905 10.5509 94.7726 11.3038C94.4715 12.0566 94.3209 12.8848 94.3209 13.7882C94.3209 14.6749 94.4715 15.4947 94.7726 16.2475C95.0905 17.0004 95.5339 17.6612 96.1027 18.23C96.6715 18.7821 97.3407 19.2088 98.1103 19.5099C98.8799 19.811 99.7331 19.9616 100.67 19.9616C101.54 19.9616 102.376 19.8278 103.18 19.5601C103.999 19.2757 104.777 18.8072 105.513 18.1548L107.37 20.589C106.45 21.3251 105.38 21.8856 104.158 22.2704C102.954 22.6384 101.732 22.8225 100.494 22.8225ZM104.284 20.1624V13.5874H107.37V20.589L104.284 20.1624Z" fill="white"/>
<path d="M117.169 22.7472C115.68 22.7472 114.375 22.4544 113.254 21.8689C112.15 21.2666 111.288 20.4468 110.669 19.4095C110.067 18.3723 109.766 17.1928 109.766 15.8711C109.766 14.5327 110.059 13.3532 110.644 12.3327C111.247 11.2954 112.066 10.484 113.104 9.89843C114.158 9.31287 115.354 9.0201 116.692 9.0201C117.997 9.0201 119.16 9.30451 120.181 9.87333C121.201 10.4422 122.004 11.2452 122.59 12.2825C123.175 13.3197 123.468 14.541 123.468 15.9464C123.468 16.0802 123.46 16.2308 123.443 16.3981C123.443 16.5654 123.435 16.7243 123.418 16.8749H112.25V14.792H121.762L120.532 15.4445C120.549 14.6749 120.39 13.9973 120.055 13.4118C119.72 12.8262 119.26 12.3661 118.675 12.0315C118.106 11.6969 117.445 11.5296 116.692 11.5296C115.923 11.5296 115.245 11.6969 114.66 12.0315C114.091 12.3661 113.639 12.8346 113.304 13.4369C112.987 14.0224 112.828 14.7167 112.828 15.5198V16.0217C112.828 16.8247 113.012 17.5357 113.38 18.1548C113.748 18.7738 114.266 19.2506 114.936 19.5852C115.605 19.9198 116.374 20.0871 117.244 20.0871C117.997 20.0871 118.675 19.97 119.277 19.7358C119.879 19.5015 120.415 19.1335 120.883 18.6316L122.565 20.5639C121.962 21.2666 121.201 21.8103 120.281 22.1951C119.378 22.5632 118.34 22.7472 117.169 22.7472Z" fill="white"/>
<path d="M133.583 9.0201C134.654 9.0201 135.608 9.22922 136.444 9.64748C137.297 10.0657 137.967 10.7098 138.452 11.5798C138.937 12.433 139.179 13.5372 139.179 14.8924V22.5715H136.043V15.2939C136.043 14.1061 135.758 13.2194 135.189 12.6338C134.637 12.0483 133.859 11.7555 132.855 11.7555C132.119 11.7555 131.467 11.906 130.898 12.2072C130.329 12.5083 129.886 12.96 129.568 13.5623C129.267 14.1479 129.116 14.8924 129.116 15.7958V22.5715H125.979V9.17067H128.966V12.7844L128.439 11.6802C128.907 10.827 129.585 10.1745 130.471 9.72276C131.375 9.25432 132.412 9.0201 133.583 9.0201Z" fill="white"/>
<path d="M142.657 22.5715V9.17067H145.794V22.5715H142.657Z" fill="white"/>
<path d="M155.081 22.7472C153.943 22.7472 152.939 22.5381 152.069 22.1198C151.199 21.6848 150.522 21.0324 150.036 20.1624C149.551 19.2757 149.309 18.1631 149.309 16.8247V9.17067H152.446V16.3981C152.446 17.6027 152.713 18.5061 153.249 19.1084C153.801 19.6939 154.579 19.9867 155.583 19.9867C156.319 19.9867 156.954 19.8361 157.49 19.535C158.042 19.2339 158.468 18.7821 158.77 18.1799C159.087 17.5776 159.246 16.8331 159.246 15.9464V9.17067H162.383V22.5715H159.397V18.9578L159.924 20.062C159.472 20.932 158.811 21.6012 157.941 22.0696C157.071 22.5213 156.118 22.7472 155.081 22.7472Z" fill="white"/>
<path d="M170.129 22.7472C169.008 22.7472 167.929 22.605 166.892 22.3206C165.871 22.0194 165.06 21.6597 164.458 21.2415L165.662 18.8574C166.265 19.2422 166.984 19.5601 167.821 19.811C168.657 20.062 169.494 20.1875 170.33 20.1875C171.317 20.1875 172.028 20.0536 172.463 19.786C172.915 19.5183 173.141 19.1586 173.141 18.7069C173.141 18.3388 172.99 18.0627 172.689 17.8787C172.388 17.678 171.995 17.5274 171.51 17.427C171.024 17.3266 170.481 17.2346 169.878 17.151C169.293 17.0673 168.699 16.9586 168.097 16.8247C167.511 16.6741 166.976 16.465 166.49 16.1973C166.005 15.9129 165.612 15.5365 165.311 15.068C165.01 14.5996 164.859 13.9806 164.859 13.211C164.859 12.3578 165.102 11.6216 165.587 11.0026C166.072 10.3669 166.75 9.8817 167.62 9.5471C168.506 9.19576 169.552 9.0201 170.757 9.0201C171.66 9.0201 172.572 9.12048 173.492 9.32124C174.412 9.522 175.173 9.80641 175.776 10.1745L174.571 12.5585C173.935 12.1737 173.291 11.9144 172.639 11.7806C172.003 11.63 171.367 11.5547 170.732 11.5547C169.778 11.5547 169.067 11.6969 168.598 11.9813C168.147 12.2657 167.921 12.6254 167.921 13.0604C167.921 13.462 168.072 13.7631 168.373 13.9639C168.674 14.1646 169.067 14.3236 169.552 14.4407C170.037 14.5578 170.573 14.6582 171.158 14.7418C171.76 14.8087 172.354 14.9175 172.94 15.068C173.526 15.2186 174.061 15.4277 174.546 15.6954C175.048 15.9464 175.449 16.3061 175.751 16.7745C176.052 17.243 176.202 17.8536 176.202 18.6065C176.202 19.443 175.951 20.1707 175.449 20.7898C174.964 21.4088 174.27 21.894 173.367 22.2453C172.463 22.5799 171.384 22.7472 170.129 22.7472Z" fill="white"/>
<path fill-rule="evenodd" clip-rule="evenodd" d="M143.028 0.980562C142.66 1.36536 142.476 1.85053 142.476 2.43609C142.476 2.70804 142.513 2.95612 142.589 3.18032C142.513 3.40383 142.476 3.64782 142.476 3.91229C142.476 4.51457 142.66 4.99975 143.028 5.36781C143.413 5.73588 143.881 5.91991 144.433 5.91991C144.952 5.91991 145.379 5.72751 145.713 5.34272C146.065 4.97465 146.24 4.49784 146.24 3.91229C146.24 3.64748 146.203 3.40321 146.127 3.17946C146.203 2.95498 146.24 2.70719 146.24 2.43609C146.24 1.85053 146.056 1.36536 145.688 0.980562C145.337 0.612498 144.893 0.428467 144.358 0.428467C143.839 0.428467 143.396 0.612498 143.028 0.980562ZM146.127 3.17946C146.036 2.90844 145.89 2.66754 145.688 2.45677C145.337 2.0887 144.893 1.90467 144.358 1.90467C143.839 1.90467 143.396 2.0887 143.028 2.45677C142.826 2.66777 142.68 2.90895 142.589 3.18032C142.68 3.45265 142.826 3.68974 143.028 3.89161C143.413 4.25967 143.881 4.4437 144.433 4.4437C144.952 4.4437 145.379 4.25131 145.713 3.86651C145.902 3.66886 146.04 3.43984 146.127 3.17946Z" fill="#246CF9"/>
</svg>
